<svg width="18" height="16" viewBox="0 0 18 16" fill="none" xmlns="http://www.w3.org/2000/svg">
<path d="M2.43879 14.8151C4.3588 15.9618 6.88211 15.7085 8.53553 14.0551C10.4882 12.1024 10.4882 8.93662 8.53553 6.984C6.58291 5.03138 3.41709 5.03138 1.46447 6.984C-0.188461 8.63693 -0.442157 11.1592 0.703377 13.079L0.627786 14.5153C0.616639 14.727 0.791427 14.9018 1.00322 14.8907L2.43879 14.8151Z" fill="#DDE6ED"/>
<g filter="url(#filter0_b_2087_8812)">
<path d="M16.7089 12.2296C18.5933 9.45499 18.4345 5.65492 16.1036 3.03467C13.3505 -0.0600964 8.6099 -0.337098 5.51514 2.41597C2.42037 5.16903 2.14337 9.90963 4.89643 13.0044C7.22732 15.6246 10.9829 16.2249 13.9581 14.6766L16.0867 14.9138C16.4107 14.9499 16.6946 14.6973 16.6965 14.3713L16.7089 12.2296Z" fill="#8698A6"/>
</g>
<path d="M8 8.51953C8 9.07182 7.55228 9.51953 7 9.51953C6.44772 9.51953 6 9.07182 6 8.51953C6 7.96725 6.44772 7.51953 7 7.51953C7.55228 7.51953 8 7.96725 8 8.51953Z" fill="white"/>
<path d="M12 8.51953C12 9.07182 11.5523 9.51953 11 9.51953C10.4477 9.51953 10 9.07182 10 8.51953C10 7.96725 10.4477 7.51953 11 7.51953C11.5523 7.51953 12 7.96725 12 8.51953Z" fill="white"/>
<path d="M15 9.51953C15.5523 9.51953 16 9.07182 16 8.51953C16 7.96725 15.5523 7.51953 15 7.51953C14.4477 7.51953 14 7.96725 14 8.51953C14 9.07182 14.4477 9.51953 15 9.51953Z" fill="white"/>
<defs>
<filter id="filter0_b_2087_8812" x="-1.1131" y="-3.59357" width="23.2262" height="23.2262" filterUnits="userSpaceOnUse" color-interpolation-filters="sRGB">
<feFlood flood-opacity="0" result="BackgroundImageFix"/>
<feGaussianBlur in="BackgroundImage" stdDeviation="2.05655"/>
<feComposite in2="SourceAlpha" operator="in" result="effect1_backgroundBlur_2087_8812"/>
<feBlend mode="normal" in="SourceGraphic" in2="effect1_backgroundBlur_2087_8812" result="shape"/>
</filter>
</defs>
</svg>
