<svg width="20" height="21" viewBox="0 0 20 21" fill="none" xmlns="http://www.w3.org/2000/svg">
<path d="M14.6824 4.09958C12.6894 3.77019 10.6439 3.77019 8.6509 4.09958C7.92278 4.21992 7.34293 4.77097 7.19694 5.48548C6.52812 8.75876 6.49163 8.95244 7.08937 12.2391L7.33274 13.5772C7.40778 13.9898 7.91802 14.1547 8.22629 13.866L11.1638 14.2895C11.4456 14.0256 11.8877 14.0256 12.1695 14.2895L15.107 17.0406C15.4153 17.3293 15.9255 17.1644 16.0006 16.7518L16.2439 15.4137C16.8417 12.127 16.8052 8.75876 16.1364 5.48548C15.9904 4.77097 15.4105 4.21992 14.6824 4.09958Z" fill="#DDE6ED"/>
<path d="M11.3491 4.09958C9.35608 3.77019 7.31061 3.77019 5.31759 4.09958C4.58947 4.21992 4.00962 4.77097 3.86362 5.48548C3.19481 8.75876 3.15831 12.127 3.75606 15.4137L3.99942 16.7518C4.07447 17.1644 4.58471 17.3293 4.89298 17.0406L7.83052 14.2895C8.11229 14.0256 8.55439 14.0256 8.83617 14.2895L11.7737 17.0406C12.082 17.3293 12.5922 17.1644 12.6673 16.7518L12.9106 15.4137C13.5084 12.127 13.4719 8.75876 12.8031 5.48548C12.6571 4.77097 12.0772 4.21992 11.3491 4.09958Z" fill="#8698A6"/>
</svg>
