<svg width="151" height="40" viewBox="0 0 151 40" fill="none" xmlns="http://www.w3.org/2000/svg">
<path fill-rule="evenodd" clip-rule="evenodd" d="M82.6534 33.3011C82.6534 31.4798 83.8125 30.0477 85.7443 30.0477C86.8068 30.0477 87.4668 30.4524 87.4668 30.4524V27.2958C87.4668 27.1401 87.6117 27 87.7727 27H88.2717C88.4327 27 88.5776 27.1401 88.5776 27.2958V36.1342C88.5776 36.2899 88.4327 36.43 88.2717 36.43H87.9336C87.7888 36.43 87.6922 36.321 87.66 36.1809L87.5634 35.7606C87.5634 35.7606 86.7907 36.5856 85.5833 36.5856C83.9413 36.5856 82.6534 35.0912 82.6534 33.3011ZM83.7794 33.3165C83.7794 34.5307 84.5199 35.6048 85.695 35.6048C86.8541 35.6048 87.4497 34.5774 87.4497 34.5774V31.4641C87.4497 31.4641 86.7736 31.0905 85.8882 31.0905C84.4877 31.0905 83.7794 32.0712 83.7794 33.3165ZM64.9376 32.4763C63.2795 32.4763 62.3619 33.3636 62.3619 34.5467C62.3619 35.792 63.2151 36.5859 64.342 36.5859C65.3401 36.5859 66.0001 36.1033 66.3382 35.7764L66.467 36.1967C66.5153 36.3368 66.5636 36.4302 66.7406 36.4302H67.0465C67.2075 36.4302 67.3524 36.2901 67.3524 36.1345V32.6787C67.3524 30.8574 66.9499 30.0479 65.3079 30.0479C64.1005 30.0479 63.1668 30.406 63.0702 30.4527C62.9254 30.5149 62.8288 30.6083 62.8932 30.7951L63.0219 31.1843C63.0702 31.3244 63.1668 31.4022 63.3278 31.34C63.6176 31.231 64.3742 30.9975 65.2596 30.9975C66.1772 30.9975 66.3221 31.5268 66.306 32.6787C66.306 32.6787 65.6299 32.4763 64.9376 32.4763ZM64.5188 35.6519C63.8266 35.6519 63.3919 35.1694 63.3919 34.5467C63.3919 33.7372 64.0358 33.3014 64.9373 33.3014C65.6457 33.3014 66.0964 33.4415 66.2896 33.5504V34.7802C66.0159 35.1694 65.3237 35.6519 64.5188 35.6519ZM48 33.7681C48 35.4182 48.6278 36.5857 50.4952 36.5857C51.8314 36.5857 52.588 35.7607 52.588 35.7607L52.7007 36.1654C52.749 36.3211 52.8134 36.43 52.9904 36.43H53.2963C53.4573 36.43 53.6022 36.2899 53.6022 36.1343V30.4992C53.6022 30.3435 53.4573 30.2034 53.2963 30.2034H52.7973C52.6363 30.2034 52.4914 30.3435 52.4914 30.4992V34.6554C52.4914 34.6554 51.7992 35.5427 50.5757 35.5427C49.6742 35.5427 49.1269 34.9668 49.1269 33.7837V30.4992C49.1269 30.3435 48.982 30.2034 48.821 30.2034H48.3059C48.1449 30.2034 48 30.3435 48 30.4992V33.7681ZM72.1517 36.5859C70.3648 36.5859 68.8516 35.2005 68.8516 33.3325C68.8516 31.4956 70.4131 30.0479 72.1678 30.0479C73.1337 30.0479 73.8903 30.4215 74.4699 31.1376C74.5826 31.2777 74.5504 31.4645 74.4055 31.5735L74.0996 31.8225C73.8942 32.0079 73.8053 31.923 73.6941 31.8168C73.6746 31.7982 73.6544 31.7789 73.6328 31.7603C73.3108 31.4022 72.7796 31.1065 72.1517 31.1065C70.9444 31.1065 70.0107 32.0716 70.0107 33.3169C70.0107 34.5623 70.9283 35.5585 72.1356 35.5585C72.9982 35.5585 73.3857 35.1861 73.7225 34.8625C73.7628 34.8238 73.8024 34.7857 73.842 34.749C74.0352 34.5623 74.1479 34.5934 74.325 34.7179L74.5021 34.8424C74.663 34.9514 74.7113 35.1226 74.6148 35.2783C74.1318 36.0255 73.2464 36.5859 72.1517 36.5859ZM78.7402 32.4763C77.0821 32.4763 76.1645 33.3636 76.1645 34.5467C76.1645 35.792 77.0177 36.5859 78.1445 36.5859C79.1426 36.5859 79.8026 36.1033 80.1407 35.7764L80.2695 36.1967C80.3178 36.3368 80.3661 36.4302 80.5432 36.4302H80.849C81.01 36.4302 81.1549 36.2901 81.1549 36.1345V32.6787C81.1549 30.8574 80.7524 30.0479 79.1104 30.0479C77.9031 30.0479 76.9694 30.406 76.8728 30.4527C76.7279 30.5149 76.6313 30.6083 76.6957 30.7951L76.8245 31.1843C76.8728 31.3244 76.9694 31.4022 77.1304 31.34C77.4201 31.231 78.1767 30.9975 79.0621 30.9975C79.9797 30.9975 80.1246 31.5268 80.1085 32.6787C80.1085 32.6787 79.4324 32.4763 78.7402 32.4763ZM78.3211 35.6519C77.6289 35.6519 77.1943 35.1694 77.1943 34.5467C77.1943 33.7372 77.8382 33.3014 78.7397 33.3014C79.448 33.3014 79.8988 33.4415 80.0919 33.5504V34.7802C79.8183 35.1694 79.126 35.6519 78.3211 35.6519ZM93.2316 30.0479C91.2837 30.0479 90.0763 31.5579 90.0763 33.3169C90.0763 35.1071 91.2837 36.5859 93.2316 36.5859C94.3424 36.5859 95.2117 36.1656 95.598 35.8698C95.8395 35.6986 95.7751 35.6052 95.6624 35.4651C95.6141 35.4028 95.5698 35.3445 95.5256 35.2861C95.4813 35.2277 95.437 35.1693 95.3887 35.1071C95.2713 34.9509 95.1806 35.0019 94.9946 35.1066L94.972 35.1193L94.938 35.1382C94.5677 35.3561 94.0204 35.6052 93.3443 35.6052C92.2013 35.6052 91.2515 34.6245 91.1871 33.5816H95.8234C95.9683 33.5816 96.097 33.4726 96.1131 33.3169C96.1292 33.208 96.1453 33.0056 96.1453 32.8966C96.1453 31.2621 94.9219 30.0479 93.2316 30.0479ZM95.0337 32.7098H91.2023C91.315 31.7447 92.1521 30.9975 93.2307 30.9975C94.2127 30.9975 94.9854 31.807 95.0337 32.7098ZM97.9504 36.4302C97.7894 36.4302 97.6446 36.2901 97.6446 36.1345V30.4994C97.6446 30.3437 97.7894 30.2036 97.9504 30.2036H98.2563C98.4012 30.2036 98.4817 30.2659 98.5139 30.3904L98.6587 30.873C98.6587 30.873 99.4154 30.0479 100.752 30.0479C101.701 30.0479 102.394 30.406 102.812 31.0598C102.818 31.0556 102.827 31.0473 102.841 31.0355C103.033 30.8732 104.01 30.0479 105.211 30.0479C107.078 30.0479 107.706 31.231 107.706 32.8499V36.1345C107.706 36.2901 107.561 36.4302 107.4 36.4302H106.885C106.724 36.4302 106.579 36.2901 106.579 36.1345V32.8499C106.579 31.6824 106.064 31.0909 105.13 31.0909C104.128 31.0909 103.451 31.7046 103.197 31.9344L103.166 31.9626C103.215 32.2273 103.247 32.523 103.247 32.8499V36.1345C103.247 36.2901 103.102 36.4302 102.941 36.4302H102.426C102.265 36.4302 102.12 36.2901 102.12 36.1345V32.8499C102.12 31.6669 101.573 31.0909 100.591 31.0909C99.4476 31.0909 98.7553 31.9782 98.7553 31.9782V36.1345C98.7553 36.2901 98.6105 36.4302 98.4495 36.4302H97.9504ZM112.235 36.4145L110.931 39.6109C110.819 39.8288 110.948 40 111.189 40H111.785C111.897 40 112.01 39.9066 112.058 39.8132L116.244 30.5614C116.356 30.3591 116.244 30.2034 116.002 30.2034H115.39C115.278 30.2034 115.165 30.2812 115.117 30.3746L112.863 35.138L110.464 30.3746C110.416 30.2812 110.32 30.2034 110.191 30.2034H109.482C109.241 30.2034 109.144 30.3435 109.241 30.5459L112.235 36.4145ZM55.4064 36.4302C55.2454 36.4302 55.1005 36.2901 55.1005 36.1345V30.4994C55.1005 30.3437 55.2454 30.2036 55.4064 30.2036H55.7123C55.8572 30.2036 55.9377 30.2659 55.9698 30.3904L56.1147 30.873C56.1147 30.873 57.0323 30.0479 58.3685 30.0479C60.2359 30.0479 60.8637 31.231 60.8637 32.8499V36.1345C60.8637 36.2901 60.7188 36.4302 60.5578 36.4302H60.0427C59.8817 36.4302 59.7368 36.2901 59.7368 36.1345V32.8499C59.7368 31.6669 59.1895 31.0909 58.288 31.0909C57.0806 31.0909 56.2113 31.9782 56.2113 31.9782V36.1345C56.2113 36.2901 56.0664 36.4302 55.9055 36.4302H55.4064Z" fill="#3C4852"/>
<path d="M51.0001 15.1846C51.0001 16.4694 51.0143 17.6664 50.9948 18.865C50.9825 19.5738 50.5234 20.0998 49.8613 20.2395C49.1921 20.381 48.5 20.086 48.2157 19.4928C48.108 19.2668 48.0586 18.9943 48.0586 18.7443C48.0498 14.8948 48.0462 11.0471 48.0568 7.19769C48.0586 6.26465 48.636 5.70758 49.6 5.69551C50.9542 5.67826 52.3085 5.65585 53.661 5.69896C56.3324 5.7852 58.4105 7.97206 58.354 10.5849C58.2993 13.1391 56.1276 15.1777 53.4526 15.1863C52.6793 15.1863 51.9059 15.1846 51.0001 15.1846ZM51.0407 12.7735C51.8247 12.7735 52.5504 12.8252 53.2637 12.7614C54.4873 12.6528 55.4142 11.6559 55.4495 10.5004C55.4849 9.3949 54.6338 8.33079 53.435 8.16349C52.6634 8.05484 51.8635 8.1428 51.039 8.1428C51.0407 9.69154 51.0407 11.192 51.0407 12.7735Z" fill="#3C4852"/>
<path d="M62.6216 11.0625C63.1019 10.6193 63.5256 10.1726 64.0076 9.79663C64.4755 9.431 65.0829 9.30166 65.5367 9.72075C65.8421 10.0019 66.0699 10.4986 66.0893 10.9108C66.1193 11.4989 65.6091 11.7662 65.06 11.93C63.4691 12.4043 62.7823 13.2994 62.7593 14.9361C62.7399 16.2089 62.7593 17.4834 62.754 18.7562C62.7487 19.6979 62.2544 20.2463 61.4175 20.2601C60.5505 20.2739 59.9855 19.7065 59.9802 18.7545C59.9679 16.1606 59.9714 13.5667 59.9785 10.9711C59.9802 10.0829 60.4411 9.54138 61.1932 9.49482C61.9366 9.44825 62.4415 9.92943 62.581 10.8142C62.5934 10.897 62.6075 10.978 62.6216 11.0625Z" fill="#3C4852"/>
<path d="M117.845 10.8609C117.845 9.44837 117.849 8.16178 117.843 6.87519C117.842 6.29053 118.024 5.80935 118.578 5.5196C119.528 5.0229 120.615 5.64723 120.619 6.72342C120.633 10.804 120.628 14.8862 120.621 18.9668C120.619 19.7204 120.102 20.2396 119.387 20.262C118.647 20.2861 118.138 19.8394 118.039 19.072C118.018 18.9098 118.011 18.7443 117.994 18.5373C117.575 18.9029 117.213 19.2789 116.795 19.5756C115.34 20.6052 113.523 20.4931 112.206 19.322C109.813 17.1938 109.909 12.4924 112.384 10.4711C114.031 9.12758 115.891 9.16553 117.478 10.5711C117.561 10.6418 117.649 10.7056 117.845 10.8609ZM113.198 14.9793C113.136 15.0018 113.258 14.9552 113.198 14.9793C113.198 15.9314 113.475 16.6316 113.903 17.3007C114.618 18.42 115.915 18.458 116.856 17.5094C118.092 16.2625 118.193 13.7324 117.059 12.4044C116.286 11.499 115.14 11.4128 114.266 12.2216C113.463 12.9684 113.177 13.9204 113.198 14.9793Z" fill="#3C4852"/>
<path d="M129.094 10.8609C129.094 9.44837 129.098 8.16178 129.092 6.87519C129.091 6.29053 129.273 5.80935 129.827 5.5196C130.777 5.0229 131.864 5.64723 131.868 6.72342C131.882 10.804 131.877 14.8862 131.87 18.9668C131.868 19.7204 131.351 20.2396 130.636 20.262C129.896 20.2861 129.387 19.8394 129.288 19.072C129.267 18.9098 129.26 18.7443 129.243 18.5373C128.824 18.9029 128.462 19.2789 128.044 19.5756C126.589 20.6052 124.772 20.4931 123.455 19.322C121.062 17.1938 121.158 12.4924 123.633 10.4711C125.28 9.12758 127.14 9.16553 128.727 10.5711C128.81 10.6418 128.898 10.7056 129.094 10.8609ZM124.447 14.9793C124.385 15.0018 124.509 14.9552 124.447 14.9793C124.447 15.9314 124.724 16.6316 125.152 17.3007C125.867 18.42 127.164 18.458 128.105 17.5094C129.341 16.2625 129.442 13.7324 128.308 12.4044C127.535 11.499 126.389 11.4128 125.515 12.2216C124.712 12.9684 124.426 13.9204 124.447 14.9793Z" fill="#3C4852"/>
<path d="M80.499 11.2025C80.7515 10.9162 80.921 10.6868 81.1276 10.4989C82.6178 9.14328 84.6624 9.13638 86.1667 10.473C88.6156 12.6495 88.5503 17.2733 86.036 19.3722C84.7489 20.4467 82.6195 20.8554 80.6402 18.9014C80.6155 19.1239 80.5802 19.2912 80.5802 19.4585C80.5749 20.545 80.5943 21.6298 80.5714 22.7163C80.5555 23.4872 80.0064 23.9684 79.2118 23.9719C78.4244 23.9753 77.8329 23.489 77.8293 22.737C77.8135 18.7237 77.8152 14.7122 77.8276 10.6989C77.8293 10.0694 78.3255 9.57962 78.9452 9.50546C79.5703 9.4313 80.1441 9.79175 80.333 10.3971C80.4019 10.6127 80.4266 10.8403 80.499 11.2025ZM85.2468 14.8622C85.2733 13.9516 85.0084 13.1341 84.3781 12.4546C83.5677 11.5802 82.5118 11.5388 81.6308 12.327C80.2906 13.5274 80.2183 16.0747 81.4895 17.3457C82.4023 18.2581 83.6171 18.2167 84.4469 17.2267C85.019 16.5438 85.2733 15.7453 85.2468 14.8622Z" fill="#3C4852"/>
<path d="M106.238 13.8515C106.247 12.5373 105.687 11.7578 104.474 11.6957C103.533 11.6474 102.565 11.844 101.631 12.0337C100.854 12.1924 100.266 12.063 100.032 11.4973C99.7791 10.8885 100.07 10.2763 100.84 9.99689C102.768 9.29668 104.723 9.23632 106.637 10.0107C108.383 10.7178 109.1 12.1027 109.093 13.8981C109.086 15.4796 109.093 17.0611 109.091 18.6426C109.089 19.7067 108.858 20.1017 108.157 20.2431C107.363 20.4052 106.893 20.0982 106.473 19.1117C104.951 20.1568 103.27 20.4966 101.453 20.1361C99.8709 19.8223 98.9581 18.9444 98.7515 17.5647C98.5273 16.0763 99.2035 14.7155 100.574 14.0119C102.205 13.1754 103.916 13.2134 105.648 13.6652C105.833 13.717 106.015 13.7808 106.238 13.8515ZM103.46 18.2063C103.483 18.2632 103.439 18.1493 103.46 18.2063C104.387 18.0752 105.141 17.8286 105.92 17.4888C106.582 17.2008 106.321 16.573 106.263 16.0953C106.227 15.9642 106.059 15.6986 105.92 15.6779C105.046 15.5451 104.156 15.3468 103.284 15.3916C102.096 15.452 101.446 16.1194 101.504 16.9524C101.561 17.7596 102.249 18.2011 103.46 18.2063Z" fill="#3C4852"/>
<path d="M69.2958 16.0348C69.1545 17.3783 70.9625 18.5597 72.7264 17.7388C72.9206 17.6473 73.0919 17.5111 73.279 17.4042C73.8635 17.0644 74.4355 17.1455 74.8293 17.618C75.2071 18.0733 75.1824 18.6942 74.711 19.1547C73.957 19.8928 72.993 20.1929 71.9566 20.2533C68.1958 20.4706 65.7945 17.6335 66.476 13.7996C66.9263 11.2661 68.895 9.54663 71.381 9.51559C73.9111 9.48282 76.1005 11.2282 76.5861 13.6824C76.6532 14.0256 76.6691 14.3877 76.6426 14.7361C76.5719 15.6519 76.1394 16.0313 75.2001 16.0348C73.2455 16.0365 71.2909 16.0348 69.2958 16.0348ZM73.9005 14.2808C73.927 12.8959 72.7776 11.7559 71.4145 11.7835C70.0991 11.8111 69.0503 12.9546 69.1457 14.2808C70.7312 14.2808 72.3168 14.2808 73.9005 14.2808Z" fill="#3C4852"/>
<path d="M135.896 16.0347C135.784 17.4541 137.684 18.5682 139.407 17.7076C139.471 17.6749 139.528 17.63 139.589 17.5921C140.472 17.0454 141.115 17.0937 141.523 17.7387C141.913 18.3527 141.643 19.046 140.811 19.5651C137.508 21.6295 133.281 19.4237 132.986 15.4794C132.779 12.7079 134.248 10.3899 136.641 9.71385C139.916 8.78771 143.341 11.2816 143.26 14.5325C143.234 15.6139 142.806 16.033 141.724 16.0347C139.792 16.0364 137.861 16.0347 135.896 16.0347ZM135.74 14.2566C137.335 14.2566 138.931 14.2566 140.527 14.2566C140.469 12.8131 139.314 11.7179 137.974 11.7834C136.683 11.8473 135.682 12.9493 135.74 14.2566Z" fill="#3C4852"/>
<path d="M92.4043 17.5472C93.9739 17.5472 95.4412 17.5541 96.9084 17.5438C97.5952 17.5386 98.0931 17.7921 98.2573 18.4699C98.4392 19.2202 97.9289 19.9186 97.1008 19.9342C95.0245 19.9738 92.9463 19.9756 90.8717 19.9307C89.9871 19.9118 89.4609 19.3081 89.4574 18.4423C89.4468 14.5739 89.4468 10.7055 89.4574 6.83541C89.4592 5.94376 90.0913 5.35048 90.9529 5.3591C91.8092 5.36945 92.3954 5.96101 92.399 6.87852C92.4095 10.1347 92.4025 13.3891 92.4043 16.6453C92.4043 16.9212 92.4043 17.1971 92.4043 17.5472Z" fill="#3C4852"/>
<path d="M147.531 11.0625C148.011 10.6193 148.435 10.1726 148.917 9.79663C149.385 9.431 149.992 9.30166 150.446 9.72075C150.751 10.0019 150.979 10.4986 150.999 10.9108C151.029 11.4989 150.518 11.7662 149.969 11.93C148.378 12.4043 147.692 13.2994 147.669 14.9361C147.649 16.2089 147.669 17.4834 147.663 18.7562C147.658 19.6979 147.164 20.2463 146.327 20.2601C145.46 20.2739 144.895 19.7065 144.89 18.7545C144.877 16.1606 144.881 13.5667 144.888 10.9711C144.89 10.0829 145.35 9.54138 146.103 9.49482C146.846 9.44825 147.351 9.92943 147.49 10.8142C147.503 10.897 147.517 10.978 147.531 11.0625Z" fill="#3C4852"/>
<path d="M33.6809 40H6.31912C2.82994 40 0 37.1702 0 33.6812V6.31885C0 2.82982 2.82994 0 6.31912 0H33.6809C37.1701 0 40 2.82982 40 6.31885V33.6795C40 37.1702 37.1718 40 33.6809 40Z" fill="url(#paint0_linear_407_18657)"/>
<path d="M16.1219 33.3521H9.87904C9.39406 33.3521 9.00049 32.9141 9.00049 32.3742C9.00049 31.8344 9.39406 31.3964 9.87904 31.3964H16.1219C16.6069 31.3964 17.0005 31.8344 17.0005 32.3742C16.9989 32.9141 16.6069 33.3521 16.1219 33.3521Z" fill="white"/>
<path d="M16.1214 29.8964H9.87856C9.39357 29.8964 9 29.4584 9 28.9186C9 28.3787 9.39357 27.9407 9.87856 27.9407H16.1214C16.6064 27.9407 17 28.3787 17 28.9186C16.9985 29.4601 16.6064 29.8964 16.1214 29.8964Z" fill="white"/>
<path d="M16.1214 26.4406H9.87856C9.39357 26.4406 9 26.0026 9 25.4627C9 24.9229 9.39357 24.4849 9.87856 24.4849H16.1214C16.6064 24.4849 17 24.9229 17 25.4627C16.9985 26.0026 16.6064 26.4406 16.1214 26.4406Z" fill="white"/>
<path d="M16.1214 22.9849H9.87856C9.39357 22.9849 9 22.5469 9 22.0071C9 21.4672 9.39357 21.0292 9.87856 21.0292H16.1214C16.6064 21.0292 17 21.4672 17 22.0071C16.9985 22.5469 16.6064 22.9849 16.1214 22.9849Z" fill="white"/>
<path d="M16.1214 19.5291H9.87856C9.39357 19.5291 9 19.0911 9 18.5512C9 18.0114 9.39357 17.5734 9.87856 17.5734H16.1214C16.6064 17.5734 17 18.0114 17 18.5512C16.9985 19.0911 16.6064 19.5291 16.1214 19.5291Z" fill="white"/>
<path d="M16.1214 16.0734H9.87856C9.39357 16.0734 9 15.6354 9 15.0956C9 14.5557 9.39357 14.1177 9.87856 14.1177H16.1214C16.6064 14.1177 17 14.5557 17 15.0956C16.9985 15.6371 16.6064 16.0734 16.1214 16.0734Z" fill="white"/>
<path d="M16.1214 12.6176H9.87856C9.39357 12.6176 9 12.1796 9 11.6397C9 11.0999 9.39357 10.6619 9.87856 10.6619H16.1214C16.6064 10.6619 17 11.0999 17 11.6397C16.9985 12.1796 16.6064 12.6176 16.1214 12.6176Z" fill="white"/>
<path d="M16.1214 9.16182H9.87856C9.39357 9.16182 9 8.72375 9 8.18393C9 7.64411 9.39357 7.20605 9.87856 7.20605H16.1214C16.6064 7.20605 17 7.64411 17 8.18393C16.9985 8.72375 16.6064 9.16182 16.1214 9.16182Z" fill="white"/>
<path d="M26.1212 9.16133H19.8783C19.3933 9.16133 18.9998 8.72326 18.9998 8.18344C18.9998 7.64363 19.3933 7.20557 19.8783 7.20557H26.1212C26.6062 7.20557 26.9998 7.64363 26.9998 8.18344C26.9982 8.72326 26.6062 9.16133 26.1212 9.16133Z" fill="white"/>
<path d="M31.1214 12.6171H24.8786C24.3936 12.6171 24 12.1791 24 11.6393C24 11.0994 24.3936 10.6614 24.8786 10.6614H31.1214C31.6064 10.6614 32 11.0994 32 11.6393C31.9985 12.1791 31.6049 12.6171 31.1214 12.6171Z" fill="white"/>
<path d="M31.1214 16.0183H24.8786C24.3936 16.0183 24 15.5802 24 15.0404C24 14.5006 24.3936 14.0625 24.8786 14.0625H31.1214C31.6064 14.0625 32 14.5006 32 15.0404C31.9985 15.5819 31.6049 16.0183 31.1214 16.0183Z" fill="white"/>
<path d="M31.1214 19.474H24.8786C24.3936 19.474 24 19.0359 24 18.4961C24 17.9563 24.3936 17.5182 24.8786 17.5182H31.1214C31.6064 17.5182 32 17.9563 32 18.4961C31.9985 19.0359 31.6049 19.474 31.1214 19.474Z" fill="white"/>
<path d="M26.1214 22.9298H19.8786C19.3936 22.9298 19 22.4917 19 21.9519C19 21.4121 19.3936 20.974 19.8786 20.974H26.1214C26.6064 20.974 27 21.4121 27 21.9519C26.9985 22.4917 26.6064 22.9298 26.1214 22.9298Z" fill="white"/>
<defs>
<linearGradient id="paint0_linear_407_18657" x1="4.48813" y1="34.669" x2="33.049" y2="7.65893" gradientUnits="userSpaceOnUse">
<stop stop-color="#209DD8"/>
<stop offset="1" stop-color="#68CEF5"/>
</linearGradient>
</defs>
</svg>
