<svg width="162" height="48" viewBox="0 0 162 48" fill="none" xmlns="http://www.w3.org/2000/svg">
<path d="M156 0H6C2.68629 0 0 2.68629 0 6V42C0 45.3137 2.68629 48 6 48H156C159.314 48 162 45.3137 162 42V6C162 2.68629 159.314 0 156 0Z" fill="black"/>
<path d="M56.9041 12.2874C56.9245 12.7275 56.8552 13.1673 56.7005 13.5798C56.5458 13.9924 56.3088 14.3692 56.0041 14.6874C55.6638 15.0409 55.2528 15.3187 54.7979 15.5028C54.343 15.6868 53.8544 15.7729 53.3641 15.7554C52.62 15.7496 51.8943 15.5243 51.2777 15.1078C50.6612 14.6913 50.1813 14.1022 49.8981 13.4141C49.6149 12.726 49.5411 11.9697 49.6859 11.2399C49.8307 10.5101 50.1877 9.83924 50.7121 9.3114C51.0567 8.95954 51.4699 8.68215 51.9261 8.49638C52.3822 8.31062 52.8717 8.22043 53.3641 8.2314C53.8714 8.22971 54.3737 8.33181 54.8401 8.5314C55.2743 8.70655 55.6608 8.98207 55.9681 9.3354L55.3321 9.9714C55.0926 9.68652 54.7901 9.46124 54.4485 9.31337C54.107 9.1655 53.7357 9.0991 53.3641 9.1194C52.9892 9.11757 52.6179 9.19144 52.2723 9.33659C51.9267 9.48174 51.614 9.69519 51.3529 9.96413C51.0918 10.2331 50.8877 10.552 50.7528 10.9017C50.618 11.2514 50.5551 11.6248 50.5681 11.9994C50.5602 12.5588 50.7182 13.1079 51.0221 13.5776C51.326 14.0473 51.7621 14.4164 52.2756 14.6385C52.789 14.8606 53.3568 14.9256 53.9071 14.8254C54.4575 14.7252 54.9658 14.4642 55.3681 14.0754C55.7373 13.6752 55.9503 13.1556 55.9681 12.6114H53.3641V11.7474H56.8561C56.8881 11.9256 56.9041 12.1063 56.9041 12.2874ZM62.4001 9.2874H59.1601V11.5674H62.1121V12.4314H59.1601V14.7114H62.4001V15.5994H58.2001V8.3994H62.4001V9.2874ZM66.3361 15.5994H65.4121V9.2874H63.3961V8.3994H68.4001V9.2874H66.3361V15.5994ZM71.9281 15.5994V8.3994H72.8521V15.5994H71.9281ZM76.9561 15.5994H76.0321V9.2874H74.0161V8.3994H78.9601V9.2874H76.9561V15.5994ZM88.3321 14.6634C87.6305 15.361 86.6814 15.7526 85.6921 15.7526C84.7027 15.7526 83.7536 15.361 83.0521 14.6634C82.3702 13.9416 81.9903 12.9863 81.9903 11.9934C81.9903 11.0005 82.3702 10.0452 83.0521 9.3234C83.3978 8.9751 83.8091 8.69865 84.2622 8.51001C84.7153 8.32136 85.2013 8.22424 85.6921 8.22424C86.1829 8.22424 86.6688 8.32136 87.1219 8.51001C87.575 8.69865 87.9863 8.9751 88.3321 9.3234C89.0166 10.0438 89.3984 10.9996 89.3984 11.9934C89.3984 12.9872 89.0166 13.943 88.3321 14.6634ZM83.7361 14.0634C84.2556 14.5808 84.9589 14.8712 85.6921 14.8712C86.4252 14.8712 87.1286 14.5808 87.6481 14.0634C88.1608 13.4982 88.4447 12.7625 88.4447 11.9994C88.4447 11.2363 88.1608 10.5006 87.6481 9.9354C87.1286 9.41806 86.4252 9.1276 85.6921 9.1276C84.9589 9.1276 84.2556 9.41806 83.7361 9.9354C83.2234 10.5006 82.9394 11.2363 82.9394 11.9994C82.9394 12.7625 83.2234 13.4982 83.7361 14.0634ZM90.6961 15.5994V8.3994H91.8241L95.3281 14.0034V8.3994H96.2521V15.5994H95.2921L91.6321 9.7314V15.5994H90.6961Z" fill="white" stroke="white" stroke-width="0.2" stroke-miterlimit="10"/>
<path d="M81.7681 26.0989C80.7605 26.1037 79.7768 26.4068 78.9413 26.9701C78.1058 27.5334 77.4558 28.3315 77.0735 29.2638C76.6912 30.1961 76.5936 31.2208 76.7931 32.2085C76.9926 33.1963 77.4802 34.1027 78.1944 34.8136C78.9086 35.5244 79.8173 36.0078 80.806 36.2026C81.7946 36.3975 82.8188 36.2951 83.7493 35.9084C84.6798 35.5217 85.4749 34.868 86.0343 34.0298C86.5936 33.1917 86.8921 32.2066 86.8921 31.1989C86.9019 30.5245 86.7759 29.8549 86.5215 29.2302C86.2672 28.6054 85.8897 28.0382 85.4116 27.5624C84.9335 27.0865 84.3646 26.7117 83.7386 26.4603C83.1127 26.2089 82.4426 26.086 81.7681 26.0989ZM81.7681 34.2949C81.1484 34.3383 80.53 34.1942 79.9933 33.8814C79.4566 33.5686 79.0263 33.1016 78.7586 32.5411C78.4908 31.9805 78.3978 31.3524 78.4917 30.7383C78.5857 30.1243 78.8622 29.5526 79.2853 29.0978C79.7084 28.6429 80.2586 28.3259 80.8643 28.1879C81.4699 28.0499 82.1031 28.0972 82.6815 28.3238C83.26 28.5505 83.7568 28.9458 84.1075 29.4586C84.4583 29.9713 84.6466 30.5777 84.6481 31.1989C84.6675 31.5926 84.6078 31.9861 84.4726 32.3562C84.3374 32.7264 84.1295 33.0658 83.8611 33.3544C83.5927 33.6429 83.2692 33.8748 82.9097 34.0363C82.5503 34.1979 82.1621 34.2858 81.7681 34.2949ZM70.5961 26.0989C69.588 26.1013 68.6031 26.4024 67.766 26.9643C66.9289 27.5261 66.2771 28.3235 65.8929 29.2556C65.5087 30.1877 65.4095 31.2127 65.6076 32.2012C65.8057 33.1898 66.2924 34.0974 67.0061 34.8094C67.7199 35.5215 68.6286 36.006 69.6176 36.2018C70.6065 36.3976 71.6314 36.2959 72.5626 35.9096C73.4938 35.5232 74.2896 34.8695 74.8495 34.0311C75.4093 33.1927 75.7081 32.2071 75.7081 31.1989C75.7179 30.5245 75.5919 29.8549 75.3375 29.2302C75.0832 28.6054 74.7057 28.0382 74.2276 27.5624C73.7495 27.0865 73.1806 26.7117 72.5546 26.4603C71.9287 26.2089 71.2586 26.086 70.5841 26.0989H70.5961ZM70.5961 34.2949C69.9761 34.3407 69.3567 34.1988 68.8185 33.8876C68.2803 33.5764 67.8482 33.1104 67.5786 32.5503C67.3089 31.9901 67.2141 31.3617 67.3066 30.7469C67.399 30.1322 67.6744 29.5595 68.0969 29.1034C68.5194 28.6473 69.0694 28.329 69.6753 28.1899C70.2813 28.0507 70.915 28.0973 71.4942 28.3234C72.0733 28.5495 72.5709 28.9447 72.9223 29.4576C73.2736 29.9705 73.4624 30.5773 73.4641 31.1989C73.4835 31.5926 73.4238 31.9861 73.2886 32.3562C73.1534 32.7264 72.9455 33.0658 72.6771 33.3544C72.4087 33.6429 72.0852 33.8748 71.7257 34.0363C71.3663 34.1979 70.9781 34.2858 70.5841 34.2949H70.5961ZM57.2881 27.6709V29.8309H62.4721C62.3908 30.8483 61.9679 31.8083 61.2721 32.5549C60.7535 33.0832 60.13 33.4971 59.4418 33.7699C58.7536 34.0427 58.0159 34.1684 57.2761 34.1389C55.7485 34.1389 54.2834 33.5321 53.2032 32.4519C52.123 31.3717 51.5161 29.9066 51.5161 28.3789C51.5161 26.8513 52.123 25.3862 53.2032 24.306C54.2834 23.2258 55.7485 22.6189 57.2761 22.6189C58.7375 22.5951 60.1486 23.1518 61.2001 24.1669L62.7241 22.6429C62.0143 21.9242 61.1674 21.3552 60.2337 20.9697C59.2999 20.5843 58.2983 20.3902 57.2881 20.3989C56.2213 20.3574 55.1571 20.5317 54.1593 20.9113C53.1614 21.2909 52.2505 21.8681 51.481 22.6082C50.7116 23.3482 50.0995 24.2361 49.6813 25.2184C49.2632 26.2007 49.0477 27.2573 49.0477 28.3249C49.0477 29.3926 49.2632 30.4492 49.6813 31.4315C50.0995 32.4138 50.7116 33.3016 51.481 34.0417C52.2505 34.7818 53.1614 35.359 54.1593 35.7386C55.1571 36.1182 56.2213 36.2925 57.2881 36.2509C58.3153 36.2974 59.3404 36.1232 60.2947 35.7403C61.2489 35.3574 62.11 34.7745 62.8201 34.0309C64.0773 32.6497 64.7486 30.8339 64.6921 28.9669C64.696 28.5121 64.6558 28.058 64.5721 27.6109L57.2881 27.6709ZM111.66 29.3509C111.347 28.4302 110.762 27.6263 109.982 27.0456C109.202 26.4648 108.264 26.1347 107.292 26.0989C106.636 26.0977 105.986 26.231 105.383 26.4908C104.78 26.7505 104.237 27.1312 103.787 27.6092C103.338 28.0872 102.99 28.6524 102.768 29.2698C102.545 29.8872 102.451 30.5438 102.492 31.1989C102.478 31.8696 102.598 32.5364 102.847 33.1594C103.096 33.7824 103.468 34.3488 103.941 34.8248C104.413 35.3009 104.977 35.6768 105.598 35.93C106.219 36.1833 106.885 36.3088 107.556 36.2989C108.396 36.3035 109.223 36.0998 109.964 35.706C110.706 35.3123 111.338 34.7409 111.804 34.0429L110.064 32.8429C109.804 33.2759 109.437 33.634 108.997 33.8822C108.558 34.1304 108.061 34.2602 107.556 34.2589C107.036 34.2788 106.523 34.1417 106.082 33.8656C105.641 33.5896 105.293 33.1872 105.084 32.7109L111.912 29.8909L111.66 29.3509ZM104.7 31.0549C104.676 30.6838 104.726 30.3115 104.847 29.9599C104.969 29.6083 105.159 29.2844 105.407 29.0073C105.655 28.7301 105.956 28.5053 106.292 28.3459C106.628 28.1864 106.993 28.0957 107.364 28.0789C107.751 28.0534 108.137 28.1422 108.474 28.3342C108.811 28.5262 109.085 28.813 109.26 29.1589L104.7 31.0549ZM99.1561 35.9989H101.4V20.9989H99.1561V35.9989ZM95.4841 27.2389H95.4001C95.0619 26.8608 94.6476 26.5584 94.1844 26.3516C93.7212 26.1448 93.2194 26.0383 92.7121 26.0389C91.4008 26.1025 90.1641 26.6683 89.2585 27.6188C88.3529 28.5694 87.8477 29.832 87.8477 31.1449C87.8477 32.4579 88.3529 33.7205 89.2585 34.671C90.1641 35.6216 91.4008 36.1874 92.7121 36.2509C93.2206 36.2595 93.7249 36.1565 94.1893 35.9492C94.6537 35.7418 95.067 35.4352 95.4001 35.0509H95.4721V35.7829C95.4721 37.7389 94.4281 38.7829 92.7481 38.7829C92.1886 38.7698 91.6456 38.5905 91.1883 38.2679C90.731 37.9452 90.38 37.4937 90.1801 36.9709L88.2241 37.7869C88.5923 38.6826 89.2197 39.4478 90.0257 39.9844C90.8318 40.5211 91.7798 40.8047 92.7481 40.7989C95.3761 40.7989 97.5481 39.2509 97.5481 35.4829V26.3989H95.4841V27.2389ZM92.9161 34.2949C92.1421 34.2267 91.4216 33.871 90.8969 33.298C90.3721 32.7249 90.081 31.976 90.081 31.1989C90.081 30.4219 90.3721 29.673 90.8969 29.0999C91.4216 28.5269 92.1421 28.1712 92.9161 28.1029C93.2999 28.1226 93.6759 28.2189 94.0219 28.3862C94.3679 28.5534 94.6769 28.7882 94.9307 29.0767C95.1846 29.3653 95.3781 29.7017 95.5 30.0661C95.6218 30.4306 95.6695 30.8158 95.6401 31.1989C95.6729 31.5838 95.6272 31.9712 95.5059 32.3379C95.3846 32.7046 95.1902 33.0429 94.9345 33.3323C94.6787 33.6217 94.3669 33.8562 94.018 34.0217C93.669 34.1871 93.2901 34.2801 92.9041 34.2949H92.9161ZM122.172 20.9989H116.808V35.9989H119.052V30.3109H122.184C122.824 30.3569 123.466 30.2706 124.071 30.0574C124.675 29.8442 125.23 29.5088 125.699 29.0719C126.168 28.6351 126.543 28.1062 126.799 27.5183C127.055 26.9305 127.187 26.2961 127.187 25.6549C127.187 25.0138 127.055 24.3794 126.799 23.7915C126.543 23.2037 126.168 22.6748 125.699 22.238C125.23 21.8011 124.675 21.4656 124.071 21.2525C123.466 21.0393 122.824 20.953 122.184 20.9989H122.172ZM122.172 28.1989H119.04V23.0869H122.22C122.903 23.0869 123.558 23.3581 124.04 23.8409C124.523 24.3236 124.794 24.9783 124.794 25.6609C124.794 26.3436 124.523 26.9983 124.04 27.481C123.558 27.9638 122.903 28.2349 122.22 28.2349L122.172 28.1989ZM136.008 26.0389C135.191 25.9901 134.378 26.181 133.668 26.5882C132.958 26.9954 132.382 27.6011 132.012 28.3309L134.004 29.1589C134.201 28.797 134.498 28.4999 134.86 28.3039C135.222 28.1079 135.634 28.0214 136.044 28.0549C136.329 28.0217 136.618 28.0455 136.893 28.1249C137.169 28.2044 137.426 28.338 137.649 28.5178C137.873 28.6976 138.058 28.9202 138.194 29.1724C138.331 29.4247 138.416 29.7016 138.444 29.9869V30.1429C137.723 29.7613 136.92 29.5635 136.104 29.5669C133.956 29.5669 131.784 30.7669 131.784 32.9389C131.805 33.4021 131.919 33.8562 132.119 34.2746C132.319 34.693 132.6 35.067 132.947 35.3747C133.294 35.6824 133.699 35.9174 134.138 36.0658C134.577 36.2142 135.042 36.2731 135.504 36.2389C136.069 36.2795 136.635 36.1672 137.142 35.9139C137.648 35.6605 138.078 35.2754 138.384 34.7989H138.456V35.9989H140.616V30.2269C140.616 27.5989 138.624 26.0749 136.068 26.0749L136.008 26.0389ZM135.732 34.2589C135 34.2589 133.98 33.8869 133.98 32.9869C133.98 31.7869 135.252 31.3909 136.38 31.3909C137.093 31.3734 137.797 31.5474 138.42 31.8949C138.345 32.5446 138.038 33.1453 137.555 33.5863C137.072 34.0273 136.446 34.279 135.792 34.2949L135.732 34.2589ZM148.488 26.3989L145.92 32.9029H145.848L143.184 26.3989H140.784L144.78 35.4949L142.5 40.5469H144.84L150.984 26.3989H148.488ZM128.316 35.9989H130.56V20.9989H128.316V35.9989Z" fill="white"/>
<path d="M12.5282 9.04885C12.137 9.51818 11.9396 10.119 11.9762 10.7288V37.2728C11.9396 37.8827 12.137 38.4835 12.5282 38.9528L12.6122 39.0368L27.4802 24.1808V23.8328L12.6122 8.96484L12.5282 9.04885Z" fill="url(#paint0_linear_1449_17402)"/>
<path d="M32.4005 29.1369L27.4805 24.1809V23.8329L32.4005 18.8649L32.5085 18.9249L38.4005 22.2729C40.0805 23.2209 40.0805 24.7809 38.4005 25.7409L32.5325 29.0769L32.4005 29.1369Z" fill="url(#paint1_linear_1449_17402)"/>
<path d="M32.5433 29.064L27.4793 24L12.5273 38.952C12.8698 39.253 13.3066 39.425 13.7624 39.4381C14.2181 39.4513 14.6641 39.3048 15.0233 39.024L32.5553 29.064" fill="url(#paint2_linear_1449_17402)"/>
<path d="M32.5436 18.9368L15.0116 8.97675C14.6524 8.69597 14.2064 8.5495 13.7506 8.56264C13.2949 8.57579 12.8581 8.74773 12.5156 9.04876L27.4796 24.0008L32.5436 18.9368Z" fill="url(#paint3_linear_1449_17402)"/>
<path opacity="0.2" d="M32.3993 28.957L15.0113 38.857C14.6649 39.1161 14.2439 39.256 13.8113 39.256C13.3788 39.256 12.9578 39.1161 12.6113 38.857L12.5273 38.941L12.6113 39.025C12.957 39.2859 13.3783 39.427 13.8113 39.427C14.2444 39.427 14.6657 39.2859 15.0113 39.025L32.5433 29.065L32.3993 28.957Z" fill="black"/>
<path opacity="0.12" d="M12.5282 38.784C12.137 38.3147 11.9396 37.7138 11.9762 37.104V37.284C11.9396 37.8938 12.137 38.4947 12.5282 38.964L12.6122 38.88L12.5282 38.784ZM38.4002 25.56L32.4002 28.956L32.5082 29.064L38.4002 25.728C38.7345 25.571 39.0215 25.3285 39.2322 25.0251C39.4428 24.7217 39.5698 24.3681 39.6002 24C39.5327 24.3344 39.3894 24.649 39.1814 24.9194C38.9734 25.1898 38.7061 25.409 38.4002 25.56Z" fill="black"/>
<path opacity="0.25" d="M15.0128 9.14441L38.4008 22.4404C38.7068 22.5914 38.9741 22.8106 39.1821 23.081C39.3901 23.3514 39.5334 23.666 39.6008 24.0004C39.5705 23.6323 39.4435 23.2787 39.2328 22.9753C39.0221 22.6719 38.7352 22.4295 38.4008 22.2724L15.0128 8.97641C13.3328 8.02841 11.9648 8.82041 11.9648 10.7404V10.9204C12.0008 8.98841 13.3448 8.19641 15.0128 9.14441Z" fill="white"/>
<defs>
<linearGradient id="paint0_linear_1449_17402" x1="26.1602" y1="10.4528" x2="6.02416" y2="30.5888" gradientUnits="userSpaceOnUse">
<stop stop-color="#00A0FF"/>
<stop offset="0.01" stop-color="#00A1FF"/>
<stop offset="0.26" stop-color="#00BEFF"/>
<stop offset="0.51" stop-color="#00D2FF"/>
<stop offset="0.76" stop-color="#00DFFF"/>
<stop offset="1" stop-color="#00E3FF"/>
</linearGradient>
<linearGradient id="paint1_linear_1449_17402" x1="40.5965" y1="24.0009" x2="11.5685" y2="24.0009" gradientUnits="userSpaceOnUse">
<stop stop-color="#FFE000"/>
<stop offset="0.41" stop-color="#FFBD00"/>
<stop offset="0.78" stop-color="#FFA500"/>
<stop offset="1" stop-color="#FF9C00"/>
</linearGradient>
<linearGradient id="paint2_linear_1449_17402" x1="29.7953" y1="26.76" x2="2.48334" y2="54.06" gradientUnits="userSpaceOnUse">
<stop stop-color="#FF3A44"/>
<stop offset="1" stop-color="#C31162"/>
</linearGradient>
<linearGradient id="paint3_linear_1449_17402" x1="8.75963" y1="0.216754" x2="20.9516" y2="12.4088" gradientUnits="userSpaceOnUse">
<stop stop-color="#32A071"/>
<stop offset="0.07" stop-color="#2DA771"/>
<stop offset="0.48" stop-color="#15CF74"/>
<stop offset="0.8" stop-color="#06E775"/>
<stop offset="1" stop-color="#00F076"/>
</linearGradient>
</defs>
</svg>
