<svg width="14" height="14" viewBox="0 0 14 14" fill="none" xmlns="http://www.w3.org/2000/svg">
<path d="M5.63355 0.541541C6.40247 -0.177909 7.59753 -0.177909 8.36645 0.541541L13.3664 5.21977C13.7706 5.59792 14 6.12667 14 6.68019V11.9994C14 13.104 13.1046 13.9994 12 13.9994H9.4C9.17907 13.9994 9 13.8203 9 13.5994V10.9996C9 9.89504 8.10458 8.99959 7 8.99959C5.89542 8.99959 5 9.89504 5 10.9996V13.5994C5 13.8203 4.82092 13.9994 4.6 13.9994H2C0.895425 13.9994 0 13.104 0 11.9994V6.68019C0 6.12667 0.229375 5.59792 0.63355 5.21977L5.63355 0.541541Z" fill="#408CF7"/>
</svg>
