<svg width="183" height="151" viewBox="0 0 183 151" fill="none" xmlns="http://www.w3.org/2000/svg">
<g clip-path="url(#clip0_137_11146)">
<path d="M22.6024 134.686C23.3612 143.967 31.1153 151.113 40.4277 151.113H86.9316H149.918H164.242C173.836 151.113 181.72 143.544 182.112 133.959L183.773 93.3306L181.853 18.7677C181.606 9.1805 173.841 1.49452 164.252 1.34558L63.3118 -0.22226L40.5198 0.839783C31.1719 1.27538 23.7402 8.84349 23.4748 18.1978L20.7961 112.592L22.6024 134.686Z" fill="#FFEDD3"/>
<rect x="55.2087" y="23.8228" width="138.753" height="97.3198" rx="5.8206" fill="#EED1A9"/>
<g style="mix-blend-mode:darken">
<path d="M194.669 47.9314H177.325C176.261 47.9314 175.398 48.7942 175.398 49.8585V67.2027C175.398 68.267 176.261 69.1298 177.325 69.1298H188.09C188.601 69.1298 189.091 68.9267 189.453 68.5653L196.032 61.9857C196.394 61.6243 196.597 61.1341 196.597 60.623V49.8585C196.597 48.7942 195.734 47.9314 194.669 47.9314Z" fill="#DEAB6F"/>
</g>
<g style="mix-blend-mode:darken">
<path d="M106.278 114.397L106.278 97.0529C106.278 95.9885 105.415 95.1257 104.35 95.1257L87.0063 95.1257C85.942 95.1257 85.0792 95.9885 85.0792 97.0529L85.0792 107.817C85.0792 108.328 85.2822 108.819 85.6436 109.18L92.2233 115.76C92.5847 116.121 93.0748 116.324 93.586 116.324L104.35 116.324C105.415 116.324 106.278 115.461 106.278 114.397Z" fill="#DEAB6F"/>
</g>
<g style="mix-blend-mode:soft-light">
<path d="M92.7872 116.325L92.7872 109.581C92.7872 109.048 92.3558 108.617 91.8237 108.617L85.0787 108.617L92.7872 116.325Z" fill="#DEAB6F"/>
</g>
<path d="M64.8442 91.2732H184.326" stroke="#DEAB6F" stroke-width="0.963563" stroke-linecap="round"/>
<path d="M81.2245 44.0569V111.506" stroke="#DEAB6F" stroke-width="0.963563" stroke-linecap="round"/>
<path d="M139.038 44.0569V111.506" stroke="#DEAB6F" stroke-width="0.963563" stroke-linecap="round"/>
<path d="M110.131 44.0569V111.506" stroke="#DEAB6F" stroke-width="0.963563" stroke-linecap="round"/>
<path d="M167.945 44.0569V111.506" stroke="#DEAB6F" stroke-width="0.963563" stroke-linecap="round"/>
<g style="mix-blend-mode:multiply">
<path d="M55.2087 29.0904C55.2087 26.1812 57.5671 23.8228 60.4764 23.8228H188.694C191.603 23.8228 193.962 26.1812 193.962 29.0904V33.4584H55.2087V29.0904Z" fill="#EED1A9"/>
</g>
<path d="M64.8442 62.3669H184.326" stroke="#DEAB6F" stroke-width="0.963563" stroke-linecap="round"/>
<g style="mix-blend-mode:darken">
<rect x="113.986" y="66.2197" width="21.1984" height="21.1984" rx="1.92713" fill="#DEAB6F"/>
</g>
<rect x="51.3542" y="45.9854" width="13.4899" height="5.78138" rx="0.963563" fill="#DEAB6F"/>
<path d="M91.824 77.3282L93.2422 78.7908L97.0242 74.8906" stroke="#DEAB6F" stroke-width="1.7334" stroke-linecap="round" stroke-linejoin="round"/>
<path d="M93.2417 51.8125L97.0237 47.9124" stroke="#DEAB6F" stroke-width="1.7334" stroke-linecap="round" stroke-linejoin="round"/>
<path d="M97.0244 51.8115L93.2425 47.9114" stroke="#DEAB6F" stroke-width="1.7334" stroke-linecap="round" stroke-linejoin="round"/>
<path d="M151.055 107.7L154.837 103.8" stroke="#DEAB6F" stroke-width="1.7334" stroke-linecap="round" stroke-linejoin="round"/>
<path d="M154.838 107.699L151.056 103.799" stroke="#DEAB6F" stroke-width="1.7334" stroke-linecap="round" stroke-linejoin="round"/>
<path d="M124.833 47.1242C124.833 47.0532 124.789 46.9892 124.721 46.9614C124.653 46.9336 124.574 46.9475 124.521 46.9967L123.866 47.6015C122.89 48.502 122.066 49.5421 121.422 50.6849C121.407 50.7106 121.398 50.7403 121.398 50.772C121.398 50.8697 121.481 50.9489 121.583 50.9489H123.171V53.4921C123.171 53.5621 123.214 53.6256 123.281 53.6539C123.348 53.6822 123.425 53.67 123.479 53.6229L123.772 53.3665C124.799 52.4691 125.67 51.4206 126.352 50.2604L126.534 49.9523C126.566 49.8975 126.566 49.8304 126.533 49.7761C126.499 49.7218 126.439 49.6884 126.373 49.6884H124.833V47.1242Z" fill="#DEAB6F"/>
<circle cx="70.8402" cy="76.5601" r="1.56006" fill="#DEAB6F"/>
<circle cx="152.743" cy="76.5601" r="1.56006" fill="#DEAB6F"/>
<circle cx="125.763" cy="104.502" r="1.56006" fill="#DEAB6F"/>
<path d="M135.611 103.257C134.288 101.837 130.749 97.3296 126.284 96.8032C124.356 96.576 122.411 97.0406 120.794 98.1144C119.177 99.1881 117.994 100.801 117.456 102.666C116.918 104.531 117.059 106.526 117.855 108.296C118.651 110.066 120.05 111.496 121.802 112.331C123.554 113.166 125.546 113.351 127.422 112.854C129.298 112.358 130.937 111.211 132.046 109.618C134.882 104.595 132.913 99.9737 132.729 98.0416" stroke="#DEAB6F" stroke-width="0.963563" stroke-linecap="round"/>
<circle cx="180.686" cy="76.5601" r="1.56006" fill="#DEAB6F"/>
<circle cx="180.686" cy="106.39" r="1.56006" fill="#DEAB6F"/>
<path d="M79.9206 75.3394C81.8032 96.9893 66.547 99.3425 51.211 99.3425C35.8749 99.3425 23.4426 93.7946 23.4426 75.3394C23.4426 56.8842 35.6795 32.5103 51.211 32.5103C77.0967 32.5103 79.9206 56.8842 79.9206 75.3394Z" fill="#3F2121"/>
<path fill-rule="evenodd" clip-rule="evenodd" d="M65.5575 57.2624C65.7785 56.511 66.5668 57.4992 67.3182 57.7202L79.3729 61.2657C80.1243 61.4867 80.5543 62.275 80.3333 63.0264C80.1123 63.7779 80.2653 64.2078 79.5139 63.9868L66.5179 59.0232C65.7665 58.8021 65.3365 58.0138 65.5575 57.2624Z" fill="#F4EBEB"/>
<path d="M101.768 102.808L94.5018 109.847L94.4804 109.822C88.5036 117.305 70.7554 134.969 60.695 139.477C60.0662 139.759 59.4346 139.979 58.8017 140.144C53.7287 141.466 48.5777 139.201 44.1603 136.058C40.3119 133.321 37.0203 129.918 34.822 127.64L34.8232 127.639L46.3567 113.665C46.6639 113.909 47.0652 114.225 47.5337 114.594L47.5375 114.597C50.7411 117.12 57.083 122.115 58.0475 123.461C58.9204 124.68 81.5307 110.704 90.5493 104.33L90.5628 104.349L92.9169 97.7017C93.1662 96.9979 94.1033 96.8646 94.5391 97.47L94.5404 97.4718L94.7593 100.463L100.958 96.0223L102.624 92.8439C103.211 91.7233 104.813 91.7175 105.409 92.8338C105.786 96.5404 104.444 100.215 101.768 102.808Z" fill="#DB8C74"/>
<path d="M47.2656 86.8191C75.0462 88.3016 75.9856 132.288 75.9854 152.996L25.0326 154.551C24.7337 132.502 22.2503 85.4842 47.2656 86.8191Z" fill="#2169CE"/>
<path d="M64.8593 122.404C66.2581 123.94 63.6816 128.729 58.7408 133.229C53.8001 137.73 47.4321 139.001 46.0333 137.465C44.6344 135.93 42.9751 127.376 47.9159 122.875C52.8566 118.375 63.4604 120.869 64.8593 122.404Z" fill="#0A4AA4"/>
<path d="M69.6534 140.692C61.0517 145.082 49.6524 134.655 44.3221 129.765L52.9761 116.383C55.4434 118.166 63.8067 124.086 65.0319 125.537C65.9987 126.682 84.767 113.488 92.1573 107.341L96.5486 112.185C92.099 119.348 78.2551 136.302 69.6534 140.692Z" fill="#F9B8A4"/>
<path d="M96.3929 112.52L104.524 102.695C106.517 100.286 107.266 97.0829 106.548 94.0403C105.75 92.8396 103.925 93.0607 103.437 94.4173L102.275 97.6478L96.3236 102.672L92.157 107.343L96.3929 112.52Z" fill="#F9B8A4"/>
<path d="M108.571 99.6945L113.791 89.8269C114.185 89.0815 113.619 88.19 112.777 88.2291C112.57 88.2387 112.373 88.3197 112.219 88.4584L104.825 95.118L97.4296 101.362C99.3583 101.415 100.394 103.652 99.1856 105.156L94.4787 111.018L95.9227 112.989L106.347 102.688C107.236 101.809 107.986 100.8 108.571 99.6945Z" fill="#F49D82"/>
<path d="M62.2233 130.754C61.1467 129.253 63.0174 127.001 64.5586 125.663C64.8532 125.408 65.2429 125.722 65.0897 126.081C64.1472 128.289 62.7933 131.549 62.2233 130.754Z" fill="#DB8C74"/>
<path d="M69.6534 140.694C61.0517 145.084 49.6525 134.657 44.3221 129.767L46.8737 125.956L61.1862 135.224C64.7074 137.504 68.3648 137.714 71.4194 134.839C78.3268 128.337 90.5105 115.433 95.0512 110.413L96.5487 112.187C92.0991 119.35 78.2551 136.304 69.6534 140.694Z" fill="#F49D82"/>
<rect x="91.1973" y="105.93" width="9.16813" height="3.62921" rx="0.9413" transform="rotate(41.2958 91.1973 105.93)" fill="#1A5099"/>
<path d="M102.511 102.164C102.511 104.243 100.615 105.929 98.2755 105.929C95.9361 105.929 94.0396 106.126 94.0396 104.046C93.5689 100.281 101.113 93.6921 103.453 93.6921C105.792 93.6921 102.511 100.084 102.511 102.164Z" fill="#F9B8A4"/>
<path d="M108.514 92.5322C108.649 92.3855 108.866 92.3488 109.042 92.4431C109.259 92.5591 109.338 92.8306 109.217 93.0445L105.774 99.1375C105.379 99.8382 104.433 99.9868 103.841 99.4412C103.334 98.9738 103.302 98.184 103.77 97.6771L108.514 92.5322Z" fill="#DB8C74"/>
<path d="M110.871 81.8789C111.325 81.3136 111.963 80.9681 112.651 80.9143L115.981 80.6543C116.775 80.5924 117.258 81.6221 116.747 82.2858L100.783 103.029C100.21 103.773 99.3346 104.147 98.447 104.025L95.317 103.598C94.597 103.5 94.2607 102.548 94.7366 101.956L110.871 81.8789Z" fill="#092D5C"/>
<path d="M110.275 82.2063C110.593 81.8001 111.051 81.5597 111.542 81.5416L114.74 81.424C115.209 81.4068 115.48 82.0158 115.178 82.4056L100.258 101.651C99.8696 102.151 99.2756 102.398 98.6776 102.306L95.6289 101.838C95.3458 101.794 95.2145 101.421 95.3993 101.185L110.275 82.2063Z" fill="white"/>
<path d="M104.154 90.8315C104.591 90.2763 105.277 90.0442 105.93 90.231L107.309 90.6249C107.698 90.7361 107.852 91.2599 107.592 91.5906L103.694 96.5522C103.257 97.1074 102.571 97.3395 101.917 97.1527L100.255 96.6778C99.9957 96.6036 99.8934 96.2544 100.067 96.034L104.154 90.8315Z" fill="#F4EBEB"/>
<path d="M109.027 84.5014C109.358 84.0916 109.833 83.8581 110.336 83.8581L112.196 83.8581C112.654 83.8581 112.912 84.4516 112.62 84.8355L109.501 88.9423C109.121 89.4428 108.536 89.6958 107.941 89.6164L105.877 89.3408C105.588 89.3022 105.453 88.9199 105.644 88.683L109.027 84.5014Z" fill="#F4EBEB"/>
<path d="M102.413 93.5389L97.1357 103.155C96.7878 103.789 96.6964 104.532 96.8801 105.232L97.8057 108.754L102.983 103.577L104.395 99.8116L103.924 98.8703L104.178 94.0412C104.231 93.042 102.895 92.6617 102.413 93.5389Z" fill="#F49D82"/>
<path d="M32.1282 100.158C42.3102 93.0364 57.0851 111.529 64.8955 122.403L61.5654 123.611C54.7595 126.079 49.2032 131.135 46.1048 137.678C37.2545 127.591 19.1636 109.226 32.1282 100.158Z" fill="#145BBE"/>
<path d="M42.2686 72.0447H57.3294L59.3924 90.5579C59.5788 92.231 58.2693 93.6946 56.5858 93.6946H52.6229C46.9043 93.6946 42.2686 89.0588 42.2686 83.3403V72.0447Z" fill="#F9B8A4"/>
<mask id="mask0_137_11146" style="mask-type:alpha" maskUnits="userSpaceOnUse" x="42" y="72" width="18" height="18">
<path d="M42.842 72.0474H57.9028L59.2118 89.4584L42.842 88.9908V72.0474Z" fill="#F9B8A4"/>
</mask>
<g mask="url(#mask0_137_11146)">
<path d="M59.2119 88.0454C59.0323 86.9755 59.3136 83.5094 60.7516 82.1986L52.1071 80.1269C51.0977 79.885 50.2753 80.8279 50.8393 81.6994C53.5538 85.8938 59.3663 88.9654 59.2119 88.0454Z" fill="#DB8C74"/>
</g>
<path d="M35.8765 62.9087C35.5566 73.6713 55.6871 82.4208 59.7394 82.5413C63.7917 82.6618 73.696 74.8052 74.0159 64.0427C74.3359 53.2802 66.7058 44.3208 55.9432 44.0009C45.1807 43.6809 36.1965 52.1462 35.8765 62.9087Z" fill="#F9B8A4"/>
<mask id="mask1_137_11146" style="mask-type:alpha" maskUnits="userSpaceOnUse" x="35" y="43" width="40" height="40">
<path d="M35.8763 62.9092C35.5563 73.6718 55.6868 82.4213 59.7391 82.5418C63.7915 82.6622 73.6957 74.8057 74.0157 64.0432C74.3357 53.2807 66.7055 44.3213 55.943 44.0013C45.1804 43.6814 36.1963 52.1467 35.8763 62.9092Z" fill="#F9B8A4"/>
</mask>
<g mask="url(#mask1_137_11146)">
<path fill-rule="evenodd" clip-rule="evenodd" d="M36.6717 57.2814C36.8673 56.4799 37.5649 57.534 38.2298 57.7697L48.8973 61.5514C49.5623 61.7872 49.0015 62.628 48.8059 63.4295C48.6104 64.231 49.7954 64.6896 49.1304 64.4539L37.5216 59.1595C36.8566 58.9237 36.4761 58.0829 36.6717 57.2814Z" fill="white"/>
<path d="M64.6667 64.9434C65.4297 66.7964 66.6941 70.5679 65.6477 70.8295C64.6013 71.0911 63.2496 70.9385 62.7046 70.8295" stroke="#DB8C74" stroke-width="0.9413" stroke-linecap="round" stroke-linejoin="round"/>
<circle r="2.95439" transform="matrix(-1 0 0 1 73.4046 69.2789)" fill="#F49D82"/>
</g>
<circle r="2.95439" transform="matrix(-1 0 0 1 48.9309 69.2796)" fill="#F49D82"/>
<path d="M55.547 72.38C55.6985 72.774 57.4254 75.5013 59.698 75.5319" stroke="#DB8C74" stroke-width="0.9413" stroke-linecap="round" stroke-linejoin="round"/>
<path d="M54.9761 64.5138C55.2898 63.8862 56.388 62.8194 58.2706 63.5725" stroke="#3F2121" stroke-width="0.9413" stroke-linecap="round"/>
<path d="M70.5892 64.2037C70.1664 63.6438 68.8923 62.7948 67.1783 63.8782" stroke="#3F2121" stroke-width="0.9413" stroke-linecap="round"/>
<path d="M52.0475 60.4288C51.7423 59.1272 54.5442 57.9333 57.0401 57.7956C57.8726 57.7496 58.5018 58.4483 58.5425 59.2811C58.5537 59.5091 58.3458 59.688 58.1183 59.6695C55.9334 59.4921 52.1304 60.7825 52.0475 60.4288Z" fill="#3F2121"/>
<path d="M72.7586 59.9528C72.8734 58.6208 69.9291 57.8423 67.4393 58.0648C66.6088 58.139 66.0866 58.9209 66.1661 59.7509C66.1878 59.9782 66.4192 60.1253 66.6418 60.0743C68.7784 59.5846 72.7274 60.3148 72.7586 59.9528Z" fill="#3F2121"/>
<ellipse cx="42.8932" cy="49.3287" rx="9.03841" ry="13.0683" transform="rotate(43.6594 42.8932 49.3287)" fill="#3F2121"/>
<ellipse cx="60.7887" cy="46.4545" rx="7.21401" ry="15.6253" transform="rotate(-65.9544 60.7887 46.4545)" fill="#3F2121"/>
<ellipse cx="37.123" cy="78.0985" rx="11.4372" ry="11.5999" transform="rotate(-65.9544 37.123 78.0985)" fill="#3F2121"/>
<rect x="30.9729" y="46.6309" width="11.2956" height="37.652" rx="5.6478" fill="#3F2121"/>
<path d="M35.2862 62.3368C34.8842 64.6373 38.3214 66.9146 39.68 67.152C41.0387 67.3894 42.977 66.0516 43.379 63.7511C43.781 61.4506 42.4328 59.2931 40.1492 58.894C37.8655 58.495 35.6882 60.0363 35.2862 62.3368Z" fill="#F9B8A4"/>
<path d="M42.651 62.6332C41.1862 62.6332 41.2269 58.0313 41.4304 55.7303L45.0923 53.2202C44.8889 56.3579 44.1158 62.6332 42.651 62.6332Z" fill="#3F2121"/>
<circle cx="55.9172" cy="63.1017" r="7.05975" stroke="white" stroke-width="0.9413"/>
<path d="M62.9771 63.1019V63.1019C63.8321 62.5319 64.9459 62.5319 65.8009 63.1019V63.1019" stroke="white" stroke-width="1.8826"/>
<circle cx="72.8608" cy="63.1017" r="7.05975" stroke="white" stroke-width="0.9413"/>
<path d="M19.9656 138.664C27.2395 138.664 33.1424 137.781 33.1424 136.684C33.1424 135.594 27.2395 134.703 19.9656 134.703C12.6917 134.703 6.78882 135.586 6.78882 136.684C6.78882 137.773 12.6917 138.664 19.9656 138.664Z" fill="#E09E2D"/>
<path d="M12.17 132.827C14.4631 134.523 15.8277 137.182 15.2181 138.767C14.6084 140.351 12.2553 140.26 9.96225 138.565C7.66919 136.869 6.77709 132.981 6.91418 132.625C7.05127 132.269 9.87695 131.131 12.17 132.827Z" fill="#075759"/>
<path d="M27.8256 132.827C25.5325 134.523 24.1679 137.182 24.7775 138.767C25.3872 140.351 27.7403 140.26 30.0334 138.565C32.3264 136.869 33.2185 132.981 33.0814 132.625C32.9443 132.269 30.1187 131.131 27.8256 132.827Z" fill="#075759"/>
<path d="M18.6512 124.945C20.5776 128.298 19.5961 131.952 16.459 133.108C13.3219 134.263 9.21716 132.482 7.29077 129.129C5.36438 125.777 8.77753 121.227 9.48295 120.967C10.1884 120.707 16.7248 121.593 18.6512 124.945Z" fill="#075759"/>
<path d="M21.3444 124.945C19.418 128.298 20.3995 131.952 23.5366 133.108C26.6737 134.263 30.7784 132.482 32.7048 129.129C34.6312 125.777 31.2181 121.227 30.5127 120.967C29.8072 120.707 23.2708 121.593 21.3444 124.945Z" fill="#075759"/>
<path d="M11.4926 127.294C11.4926 134.872 15.3752 141.015 20.1646 141.015C24.9541 141.015 28.8367 134.872 28.8367 127.294C28.8367 119.716 21.2416 113.573 20.1646 113.573C19.0876 113.573 11.4926 119.716 11.4926 127.294Z" fill="#006E7C"/>
<path fill-rule="evenodd" clip-rule="evenodd" d="M33.1289 136.775C32.8136 137.83 27.0376 138.665 19.9656 138.665C12.8942 138.665 7.11858 137.823 6.80245 136.775C6.79348 136.815 6.78882 136.864 6.78882 136.922V139.783C6.78882 146.046 11.9645 151.115 18.3396 151.115H21.5996C27.9747 151.115 33.1424 146.038 33.1424 139.783V136.922C33.1424 136.864 33.1378 136.816 33.1289 136.775Z" fill="#FFC25B"/>
<path d="M106.345 145.722L106.337 151.771L112.551 148.757L106.345 145.722Z" fill="#FFD48E"/>
<path d="M111.001 147.998L112.552 148.757L110.999 149.51L111.001 147.998Z" fill="#5E5340"/>
<rect width="3.02371" height="26.966" transform="matrix(-0.00129499 0.999999 0.999998 0.00169009 79.3788 145.678)" fill="#E09E2D"/>
<rect width="3.02371" height="26.966" transform="matrix(-0.00129499 0.999999 0.999998 0.00169009 79.3757 148.702)" fill="#FFC25B"/>
<path d="M76.1309 145.669C75.1353 145.667 74.3272 146.473 74.3259 147.468L74.3227 149.911C74.3215 150.907 75.1275 151.715 76.123 151.717L78.6531 151.721L78.6609 145.673L76.1309 145.669Z" fill="#FF7378"/>
<rect width="6.04819" height="1.24828" transform="matrix(-0.00129499 0.999999 0.999998 0.00169009 78.132 145.678)" fill="white"/>
<path d="M156.373 125.205C157.241 121.476 155.309 117.837 152.058 117.077C148.807 116.317 145.468 118.725 144.601 122.454C143.733 126.184 145.665 129.823 148.916 130.582C152.167 131.342 155.506 128.935 156.373 125.205Z" fill="#CE453A"/>
<path d="M148.669 130.223C151.751 128.937 153.058 125.029 151.589 121.494C150.119 117.959 146.431 116.136 143.349 117.423C140.268 118.709 138.961 122.617 140.43 126.152C141.899 129.687 145.588 131.51 148.669 130.223Z" fill="#CE453A"/>
<path d="M149.977 114.772C148.617 115.334 147.721 116.546 147.484 117.887C148.606 118.666 150.095 118.882 151.445 118.309C152.805 117.747 153.7 116.535 153.938 115.194C152.815 114.426 151.337 114.209 149.977 114.772Z" fill="#0A595B"/>
<path d="M154.09 135.581C154.09 138.44 151.772 140.758 148.913 140.758H121.401C118.705 140.758 116.521 138.441 116.521 135.581C116.521 132.721 118.705 130.404 121.401 130.404H139.6H148.913C151.772 130.404 154.09 132.722 154.09 135.581Z" fill="#FF7378"/>
<path d="M133.474 140.597C131.186 140.597 129.33 138.737 129.33 136.444V134.832C129.33 132.539 131.186 130.678 133.474 130.678C134.435 130.678 135.212 131.457 135.212 132.42V138.834C135.223 139.818 134.446 140.597 133.474 140.597Z" fill="#FFAF27"/>
<path d="M155.969 139.816H129.393C127.476 139.816 125.913 137.915 125.913 135.581C125.913 133.247 127.476 131.345 129.393 131.345H155.969V139.816Z" fill="#FFDEE2"/>
<path fill-rule="evenodd" clip-rule="evenodd" d="M157.01 140.758C158.082 140.758 158.952 139.915 158.952 138.876C158.952 138.876 158.951 138.875 158.951 138.875H130.737C128.631 138.875 126.916 137.396 126.916 135.581C126.916 133.765 128.631 132.286 130.737 132.286H155.948C157.607 132.286 158.669 130.404 157.01 130.404H130.023C127.234 130.404 124.974 132.721 124.974 135.581C124.974 138.441 127.234 140.758 130.023 140.758H157.01Z" fill="#FF8A8E"/>
<path d="M165.361 145.936C165.361 148.796 163.043 151.114 160.184 151.114H121.401C118.705 151.114 116.521 148.796 116.521 145.936C116.521 143.077 118.705 140.759 121.401 140.759H150.871H160.184C163.043 140.759 165.361 143.077 165.361 145.936Z" fill="#FFAF27"/>
<path d="M144.698 145.935C144.698 148.795 142.38 151.113 139.521 151.113H128.915C126.219 151.113 124.035 148.795 124.035 145.935C124.035 143.076 126.219 140.758 128.915 140.758H130.208H139.521C142.38 140.758 144.698 143.076 144.698 145.935Z" fill="#F9E4C5"/>
<path d="M148.455 145.935C148.455 148.795 146.137 151.113 143.278 151.113H132.672C129.976 151.113 127.792 148.795 127.792 145.935C127.792 143.076 129.976 140.758 132.672 140.758H133.965H143.278C146.137 140.758 148.455 143.076 148.455 145.935Z" fill="#FFAF27"/>
<path d="M144.745 150.952C142.457 150.952 140.6 149.091 140.6 146.798V145.186C140.6 142.893 142.457 141.032 144.745 141.032C145.705 141.032 146.482 141.811 146.482 142.774V149.188C146.493 150.173 145.716 150.952 144.745 150.952Z" fill="#FFAF27"/>
<path d="M167.239 150.172H140.663C138.746 150.172 137.184 148.271 137.184 145.937C137.184 143.603 138.746 141.701 140.663 141.701H167.239V150.172Z" fill="#F9E4C5"/>
<path fill-rule="evenodd" clip-rule="evenodd" d="M170.222 142.641C170.222 142.641 170.222 142.641 170.222 142.641H142.008C139.902 142.641 138.187 144.12 138.187 145.936C138.187 147.751 139.902 149.23 142.008 149.23H167.219C168.877 149.23 169.94 151.113 168.281 151.113H141.294C138.505 151.113 136.245 148.795 136.245 145.935C136.245 143.076 138.505 140.758 141.294 140.758H168.281C169.353 140.758 170.222 141.601 170.222 142.641Z" fill="#E29423"/>
</g>
<defs>
<clipPath id="clip0_137_11146">
<rect width="205.281" height="150.584" fill="white" transform="translate(0.319336 0.518555)"/>
</clipPath>
</defs>
</svg>
