<svg width="182" height="48" viewBox="0 0 182 48" fill="none" xmlns="http://www.w3.org/2000/svg">
<path d="M61.2001 26.2215C61.2001 27.7633 61.217 29.1996 61.1937 30.638C61.1789 31.4886 60.628 32.1198 59.8335 32.2875C59.0305 32.4572 58.1999 32.1033 57.8588 31.3913C57.7296 31.1202 57.6702 30.7932 57.6702 30.4931C57.6596 25.8738 57.6554 21.2566 57.6681 16.6372C57.6702 15.5176 58.3631 14.8491 59.5199 14.8346C61.145 14.8139 62.7701 14.787 64.3931 14.8388C67.5988 14.9422 70.0925 17.5665 70.0247 20.7019C69.9591 23.767 67.353 26.2132 64.1431 26.2236C63.215 26.2236 62.287 26.2215 61.2001 26.2215ZM61.2488 23.3282C62.1896 23.3282 63.0604 23.3903 63.9164 23.3137C65.3847 23.1833 66.497 21.9871 66.5394 20.6005C66.5818 19.2739 65.5605 17.997 64.1219 17.7962C63.196 17.6658 62.2362 17.7714 61.2467 17.7714C61.2488 19.6299 61.2488 21.4304 61.2488 23.3282Z" fill="#3C4852"/>
<path d="M75.1459 21.2751C75.7222 20.7432 76.2307 20.2072 76.8091 19.756C77.3706 19.3173 78.0995 19.1621 78.644 19.665C79.0105 20.0023 79.2839 20.5984 79.3072 21.093C79.3432 21.7987 78.7309 22.1195 78.0719 22.3161C76.1629 22.8853 75.3387 23.9594 75.3112 25.9234C75.2879 27.4508 75.3112 28.9802 75.3048 30.5076C75.2985 31.6375 74.7052 32.2957 73.7009 32.3122C72.6606 32.3288 71.9826 31.6479 71.9762 30.5055C71.9614 27.3928 71.9657 24.2802 71.9741 21.1654C71.9762 20.0996 72.5292 19.4497 73.4318 19.3939C74.3238 19.338 74.9298 19.9154 75.0972 20.9771C75.112 21.0764 75.129 21.1737 75.1459 21.2751Z" fill="#3C4852"/>
<path d="M141.414 21.0331C141.414 19.3381 141.418 17.7942 141.412 16.2502C141.41 15.5487 141.628 14.9712 142.293 14.6235C143.433 14.0275 144.738 14.7767 144.743 16.0681C144.76 20.9648 144.753 25.8635 144.745 30.7601C144.743 31.6645 144.122 32.2875 143.264 32.3144C142.376 32.3433 141.766 31.8073 141.647 30.8864C141.622 30.6918 141.613 30.4931 141.592 30.2448C141.09 30.6835 140.656 31.1347 140.153 31.4907C138.408 32.7262 136.227 32.5917 134.647 31.1864C131.776 28.6326 131.89 22.9909 134.861 20.5653C136.838 18.9531 139.069 18.9987 140.973 20.6854C141.073 20.7702 141.179 20.8468 141.414 21.0331ZM135.838 25.9752C135.763 26.0021 135.91 25.9463 135.838 25.9752C135.838 27.1176 136.17 27.9579 136.683 28.7609C137.541 30.1041 139.098 30.1496 140.228 29.0113C141.711 27.515 141.832 24.4789 140.471 22.8853C139.543 21.7988 138.168 21.6953 137.119 22.666C136.155 23.5621 135.812 24.7045 135.838 25.9752Z" fill="#3C4852"/>
<path d="M154.913 21.0331C154.913 19.3381 154.917 17.7942 154.911 16.2502C154.909 15.5487 155.127 14.9712 155.792 14.6235C156.932 14.0275 158.237 14.7767 158.242 16.0681C158.259 20.9648 158.252 25.8635 158.244 30.7601C158.242 31.6645 157.621 32.2875 156.763 32.3144C155.875 32.3433 155.265 31.8073 155.146 30.8864C155.121 30.6918 155.112 30.4931 155.091 30.2448C154.589 30.6835 154.155 31.1347 153.652 31.4907C151.906 32.7262 149.726 32.5917 148.146 31.1864C145.275 28.6326 145.389 22.9909 148.36 20.5653C150.336 18.9531 152.568 18.9987 154.472 20.6854C154.572 20.7702 154.678 20.8468 154.913 21.0331ZM149.336 25.9752C149.262 26.0021 149.411 25.9463 149.336 25.9752C149.336 27.1176 149.669 27.9579 150.182 28.7609C151.04 30.1041 152.597 30.1496 153.727 29.0113C155.21 27.515 155.33 24.4789 153.97 22.8853C153.042 21.7988 151.667 21.6953 150.618 22.666C149.654 23.5621 149.311 24.7045 149.336 25.9752Z" fill="#3C4852"/>
<path d="M96.5987 21.443C96.9017 21.0994 97.1051 20.8242 97.353 20.5986C99.1412 18.9719 101.595 18.9636 103.4 20.5675C106.339 23.1793 106.26 28.7279 103.243 31.2466C101.699 32.536 99.1433 33.0264 96.7682 30.6816C96.7385 30.9486 96.6961 31.1493 96.6961 31.3501C96.6898 32.6539 96.7131 33.9557 96.6856 35.2595C96.6665 36.1846 96.0075 36.762 95.0541 36.7662C94.1091 36.7703 93.3994 36.1867 93.3951 35.2844C93.3761 30.4684 93.3782 25.6546 93.393 20.8386C93.3951 20.0832 93.9905 19.4955 94.7342 19.4065C95.4842 19.3175 96.1728 19.75 96.3995 20.4765C96.4822 20.7352 96.5118 21.0084 96.5987 21.443ZM102.296 25.8346C102.328 24.7419 102.01 23.7609 101.254 22.9455C100.281 21.8962 99.0141 21.8465 97.9568 22.7923C96.3487 24.2328 96.2618 27.2895 97.7873 28.8148C98.8827 29.9096 100.34 29.86 101.336 28.672C102.023 27.8525 102.328 26.8943 102.296 25.8346Z" fill="#3C4852"/>
<path d="M127.485 24.6217C127.496 23.0447 126.824 22.1093 125.369 22.0348C124.239 21.9768 123.078 22.2127 121.957 22.4404C121.025 22.6308 120.32 22.4756 120.038 21.7967C119.735 21.0662 120.085 20.3315 121.008 19.9962C123.322 19.156 125.667 19.0835 127.964 20.0128C130.06 20.8613 130.92 22.5232 130.911 24.6776C130.903 26.5754 130.911 28.4732 130.909 30.371C130.907 31.648 130.63 32.1219 129.788 32.2916C128.835 32.4862 128.271 32.1178 127.767 30.934C125.941 32.1881 123.924 32.5959 121.743 32.1633C119.845 31.7866 118.75 30.7332 118.502 29.0776C118.233 27.2915 119.044 25.6586 120.688 24.8142C122.646 23.8105 124.699 23.856 126.778 24.3982C127 24.4603 127.218 24.5369 127.485 24.6217ZM124.153 29.8474C124.18 29.9157 124.127 29.7791 124.153 29.8474C125.265 29.6902 126.17 29.3942 127.104 28.9865C127.899 28.6409 127.585 27.8875 127.515 27.3143C127.473 27.157 127.271 26.8383 127.104 26.8134C126.055 26.6541 124.987 26.4161 123.941 26.4699C122.515 26.5423 121.735 27.3432 121.805 28.3429C121.873 29.3114 122.699 29.8412 124.153 29.8474Z" fill="#3C4852"/>
<path d="M83.1549 27.2417C82.9854 28.8539 85.155 30.2716 87.2716 29.2864C87.5047 29.1768 87.7102 29.0133 87.9348 28.8849C88.6361 28.4772 89.3226 28.5745 89.7951 29.1416C90.2485 29.6879 90.2188 30.433 89.6531 30.9856C88.7484 31.8714 87.5916 32.2315 86.3479 32.3039C81.8349 32.5647 78.9534 29.1602 79.7712 24.5595C80.3115 21.5193 82.6739 19.4559 85.6572 19.4187C88.6933 19.3793 91.3206 21.4737 91.9033 24.4188C91.9838 24.8306 92.0028 25.2652 91.9711 25.6833C91.8863 26.7822 91.3672 27.2375 90.24 27.2417C87.8946 27.2438 85.5491 27.2417 83.1549 27.2417ZM88.6806 25.1369C88.7124 23.475 87.3331 22.107 85.6974 22.1402C84.1189 22.1733 82.8604 23.5454 82.9748 25.1369C84.8774 25.1369 86.7801 25.1369 88.6806 25.1369Z" fill="#3C4852"/>
<path d="M163.075 27.2417C162.941 28.945 165.221 30.282 167.289 29.2492C167.365 29.2099 167.433 29.1561 167.507 29.1106C168.567 28.4545 169.338 28.5125 169.827 29.2865C170.295 30.0233 169.971 30.8552 168.973 31.4782C165.009 33.9555 159.937 31.3085 159.583 26.5753C159.335 23.2495 161.098 20.468 163.969 19.6567C167.899 18.5453 172.009 21.538 171.912 25.4391C171.88 26.7368 171.368 27.2397 170.069 27.2417C167.751 27.2438 165.433 27.2417 163.075 27.2417ZM162.888 25.108C164.801 25.108 166.717 25.108 168.632 25.108C168.562 23.3758 167.177 22.0616 165.568 22.1402C164.02 22.2168 162.818 23.5392 162.888 25.108Z" fill="#3C4852"/>
<path d="M110.885 29.0567C112.769 29.0567 114.529 29.065 116.29 29.0526C117.114 29.0464 117.712 29.3506 117.909 30.1639C118.127 31.0642 117.515 31.9024 116.521 31.921C114.029 31.9686 111.536 31.9707 109.046 31.9169C107.985 31.8941 107.353 31.1697 107.349 30.1308C107.336 25.4887 107.336 20.8466 107.349 16.2025C107.351 15.1325 108.11 14.4206 109.143 14.4309C110.171 14.4433 110.875 15.1532 110.879 16.2542C110.891 20.1616 110.883 24.0669 110.885 27.9743C110.885 28.3054 110.885 28.6366 110.885 29.0567Z" fill="#3C4852"/>
<path d="M177.037 21.2751C177.613 20.7432 178.122 20.2072 178.7 19.756C179.262 19.3173 179.991 19.1621 180.535 19.665C180.902 20.0023 181.175 20.5984 181.198 21.093C181.234 21.7987 180.622 22.1195 179.963 22.3161C178.054 22.8853 177.23 23.9594 177.202 25.9234C177.179 27.4508 177.202 28.9802 177.196 30.5076C177.19 31.6375 176.596 32.2957 175.592 32.3122C174.552 32.3288 173.874 31.6479 173.867 30.5055C173.853 27.3928 173.857 24.2802 173.865 21.1654C173.867 20.0996 174.42 19.4497 175.323 19.3939C176.215 19.338 176.821 19.9154 176.988 20.9771C177.003 21.0764 177.02 21.1737 177.037 21.2751Z" fill="#3C4852"/>
<path d="M40.417 48H7.58294C3.39593 48 0 44.6042 0 40.4174V7.58262C0 3.39578 3.39593 0 7.58294 0H40.417C44.6041 0 48 3.39578 48 7.58262V40.4153C48 44.6042 44.6061 48 40.417 48Z" fill="url(#paint0_linear_1391_17364)"/>
<path d="M19.3463 40.0225H11.8548C11.2728 40.0225 10.8005 39.4969 10.8005 38.8491C10.8005 38.2013 11.2728 37.6756 11.8548 37.6756H19.3463C19.9282 37.6756 20.4005 38.2013 20.4005 38.8491C20.3987 39.4969 19.9282 40.0225 19.3463 40.0225Z" fill="white"/>
<path d="M19.3458 35.8757H11.8543C11.2723 35.8757 10.8 35.35 10.8 34.7023C10.8 34.0545 11.2723 33.5288 11.8543 33.5288H19.3458C19.9278 33.5288 20.4 34.0545 20.4 34.7023C20.3982 35.3521 19.9278 35.8757 19.3458 35.8757Z" fill="white"/>
<path d="M19.3458 31.7287H11.8543C11.2723 31.7287 10.8 31.2031 10.8 30.5553C10.8 29.9075 11.2723 29.3818 11.8543 29.3818H19.3458C19.9278 29.3818 20.4 29.9075 20.4 30.5553C20.3982 31.2031 19.9278 31.7287 19.3458 31.7287Z" fill="white"/>
<path d="M19.3458 27.5819H11.8543C11.2723 27.5819 10.8 27.0563 10.8 26.4085C10.8 25.7607 11.2723 25.235 11.8543 25.235H19.3458C19.9278 25.235 20.4 25.7607 20.4 26.4085C20.3982 27.0563 19.9278 27.5819 19.3458 27.5819Z" fill="white"/>
<path d="M19.3458 23.435H11.8543C11.2723 23.435 10.8 22.9093 10.8 22.2615C10.8 21.6137 11.2723 21.088 11.8543 21.088H19.3458C19.9278 21.088 20.4 21.6137 20.4 22.2615C20.3982 22.9093 19.9278 23.435 19.3458 23.435Z" fill="white"/>
<path d="M19.3458 19.2881H11.8543C11.2723 19.2881 10.8 18.7624 10.8 18.1146C10.8 17.4668 11.2723 16.9411 11.8543 16.9411H19.3458C19.9278 16.9411 20.4 17.4668 20.4 18.1146C20.3982 18.7645 19.9278 19.2881 19.3458 19.2881Z" fill="white"/>
<path d="M19.3458 15.1412H11.8543C11.2723 15.1412 10.8 14.6155 10.8 13.9677C10.8 13.3199 11.2723 12.7943 11.8543 12.7943H19.3458C19.9278 12.7943 20.4 13.3199 20.4 13.9677C20.3982 14.6155 19.9278 15.1412 19.3458 15.1412Z" fill="white"/>
<path d="M19.3458 10.9943H11.8543C11.2723 10.9943 10.8 10.4686 10.8 9.82081C10.8 9.17303 11.2723 8.64735 11.8543 8.64735H19.3458C19.9278 8.64735 20.4 9.17303 20.4 9.82081C20.3982 10.4686 19.9278 10.9943 19.3458 10.9943Z" fill="white"/>
<path d="M31.3454 10.9936H23.854C23.272 10.9936 22.7997 10.4679 22.7997 9.82015C22.7997 9.17237 23.272 8.6467 23.854 8.6467H31.3454C31.9274 8.6467 32.3997 9.17237 32.3997 9.82015C32.3978 10.4679 31.9274 10.9936 31.3454 10.9936Z" fill="white"/>
<path d="M37.3458 15.1405H29.8543C29.2723 15.1405 28.8 14.6148 28.8 13.967C28.8 13.3193 29.2723 12.7936 29.8543 12.7936H37.3458C37.9278 12.7936 38.4 13.3193 38.4 13.967C38.3982 14.6148 37.9259 15.1405 37.3458 15.1405Z" fill="white"/>
<path d="M37.3458 19.2219H29.8543C29.2723 19.2219 28.8 18.6962 28.8 18.0484C28.8 17.4006 29.2723 16.8749 29.8543 16.8749H37.3458C37.9278 16.8749 38.4 17.4006 38.4 18.0484C38.3982 18.6982 37.9259 19.2219 37.3458 19.2219Z" fill="white"/>
<path d="M37.3458 23.3688H29.8543C29.2723 23.3688 28.8 22.8431 28.8 22.1953C28.8 21.5475 29.2723 21.0218 29.8543 21.0218H37.3458C37.9278 21.0218 38.4 21.5475 38.4 22.1953C38.3982 22.8431 37.9259 23.3688 37.3458 23.3688Z" fill="white"/>
<path d="M31.3458 27.5157H23.8543C23.2723 27.5157 22.8 26.99 22.8 26.3423C22.8 25.6945 23.2723 25.1688 23.8543 25.1688H31.3458C31.9278 25.1688 32.4 25.6945 32.4 26.3423C32.3982 26.99 31.9278 27.5157 31.3458 27.5157Z" fill="white"/>
<defs>
<linearGradient id="paint0_linear_1391_17364" x1="5.38575" y1="41.6028" x2="39.6588" y2="9.19071" gradientUnits="userSpaceOnUse">
<stop stop-color="#209DD8"/>
<stop offset="1" stop-color="#68CEF5"/>
</linearGradient>
</defs>
</svg>
