<svg width="20" height="20" viewBox="0 0 20 20" fill="none" xmlns="http://www.w3.org/2000/svg">
<path d="M16.0769 6.46071C17.1204 7.06098 17.6138 8.30084 17.2419 9.44583C16.8305 10.7124 16.2735 12.349 15.7632 13.5872C15.4601 14.3227 15.1707 14.9245 14.9163 15.4038C14.4068 16.364 13.3012 16.734 12.2507 16.4547C9.88481 15.8259 7.60942 14.8886 5.48744 13.6679C4.54377 13.1251 4.02032 12.0815 4.33562 11.0395C4.49282 10.52 4.711 9.88982 5.013 9.157C5.52137 7.92339 6.28023 6.36742 6.88153 5.17678C7.4243 4.10204 8.648 3.56946 9.81162 3.87874C12.004 4.46144 14.1105 5.3296 16.0769 6.46071Z" fill="#DDE6ED"/>
<path d="M12.344 2.97626C13.5083 3.13665 14.4096 4.07563 14.4975 5.24765C14.6031 6.65724 14.72 8.54587 14.72 10C14.72 11.4541 14.6031 13.3428 14.4975 14.7523C14.4096 15.9244 13.5083 16.8633 12.344 17.0237C10.0501 17.3397 7.72344 17.3398 5.42954 17.0238C4.26509 16.8634 3.36383 15.9241 3.27609 14.7519C3.1704 13.34 3.0533 11.4487 3.0533 10C3.0533 8.55128 3.1704 6.65998 3.27609 5.24805C3.36383 4.07589 4.26509 3.13664 5.42954 2.97623C7.72344 2.66024 10.0501 2.66027 12.344 2.97626Z" fill="#8698A6"/>
<path d="M6.66675 10.4166L7.80311 11.6666L10.8334 8.33325" stroke="white" stroke-width="1.66667" stroke-linecap="round" stroke-linejoin="round"/>
</svg>
