<svg width="18" height="16" viewBox="0 0 18 16" fill="none" xmlns="http://www.w3.org/2000/svg">
<path d="M0.500641 8.56007C0.500641 12.4037 3.6165 15.5195 7.4601 15.5195H11.0006V12.0195C11.0006 9.81039 9.20978 8.01953 7.00064 8.01953H1.04118C0.742649 8.01953 0.500641 8.26154 0.500641 8.56007Z" fill="#DDE6ED"/>
<path d="M4.49805 9.01953C4.49805 12.6094 7.4082 15.5195 10.998 15.5195C14.5879 15.5195 17.498 12.6094 17.498 9.01953V8.56007C17.498 8.26154 17.256 8.01953 16.9575 8.01953H5.03859C4.74006 8.01953 4.49805 8.26154 4.49805 8.56007V9.01953Z" fill="#8698A6"/>
<circle r="3.5" transform="matrix(-1 0 0 1 10.998 3.51953)" fill="#8698A6"/>
</svg>
