<svg width="80" height="80" viewBox="0 0 80 80" fill="none" xmlns="http://www.w3.org/2000/svg">
<g clip-path="url(#clip0_137_15117)">
<circle opacity="0.15" cx="40" cy="40" r="40" fill="#FDB858"/>
<rect x="0.00292969" y="24" width="47" height="32" rx="4" fill="#EED1A8"/>
<circle r="5.5" transform="matrix(-1 0 0 1 23.5059 35.5)" fill="#DEAB6F"/>
<path d="M14.0059 42.5C13.4536 42.5 13.0009 42.9488 13.0534 43.4985C13.2844 45.9169 14.3489 48.1923 16.0812 49.9246C18.0504 51.8938 20.7211 53 23.5059 53C26.2906 53 28.9613 51.8938 30.9305 49.9246C32.6628 48.1923 33.7274 45.9169 33.9583 43.4985C34.0108 42.9488 33.5581 42.5 33.0059 42.5L14.0059 42.5Z" fill="#DEAB6F"/>
<g opacity="0.5">
<rect x="23.0059" y="2.96997" width="23.9972" height="17.0303" rx="3.09641" fill="#EED1A8"/>
<circle r="2.23015" transform="matrix(-1 0 0 1 35.0062 9.43926)" fill="#DEAB6F"/>
<path d="M31.155 12.2776C30.9311 12.2776 30.7475 12.4596 30.7688 12.6825C30.8624 13.6631 31.2941 14.5857 31.9965 15.2881C32.795 16.0866 33.8779 16.5352 35.0071 16.5352C36.1363 16.5352 37.2192 16.0866 38.0176 15.2881C38.7201 14.5857 39.1517 13.6631 39.2454 12.6825C39.2667 12.4596 39.0831 12.2776 38.8592 12.2776L31.155 12.2776Z" fill="#DEAB6F"/>
<rect x="23.0059" y="60" width="23.9972" height="17.0303" rx="3.09641" fill="#EED1A8"/>
<circle r="2.23015" transform="matrix(-1 0 0 1 35.7806 66.4693)" fill="#DEAB6F"/>
<path d="M31.9284 69.3076C31.7045 69.3076 31.5209 69.4896 31.5422 69.7125C31.6359 70.6931 32.0675 71.6157 32.77 72.3182C33.5684 73.1166 34.6513 73.5652 35.7805 73.5652C36.9097 73.5652 37.9926 73.1166 38.7911 72.3182C39.4935 71.6157 39.9252 70.6931 40.0188 69.7125C40.0401 69.4896 39.8565 69.3076 39.6326 69.3076L31.9284 69.3076Z" fill="#DEAB6F"/>
</g>
<path d="M28.0452 63.306L34.371 69.4339L34.3897 69.4118C39.5927 75.9266 55.043 91.3033 63.8009 95.2276C64.3483 95.4729 64.8982 95.6651 65.4491 95.8086C69.8653 96.9592 74.3494 94.9874 78.1949 92.2519C81.5451 89.8688 84.4106 86.9061 86.3242 84.9234L86.3232 84.9222L76.2829 72.7579C76.0155 72.9702 75.6662 73.2453 75.2582 73.5666L75.255 73.5692C72.4662 75.7656 66.9453 80.1138 66.1057 81.2857C65.3458 82.3464 45.6628 70.1805 37.8118 64.6312L37.8 64.6476L35.7507 58.8611C35.5337 58.2484 34.7179 58.1324 34.3385 58.6594L34.3374 58.661L34.1468 61.2652L28.7504 57.3991L27.3003 54.6322C26.789 53.6567 25.3944 53.6516 24.876 54.6234C24.5479 57.8501 25.7156 61.0494 28.0452 63.306Z" fill="#DB8C74"/>
<path d="M50.8249 39.8621C51.19 40.2416 55.266 37.5882 55.0018 37.1327C51.0874 30.3822 46.7211 23.1718 49.7414 14.4682C50.343 12.7348 51.0725 11.1079 51.9097 9.59908C52.0708 9.30882 51.8655 8.94935 51.5339 8.96621C49.054 9.09235 46.9911 9.75943 45.2922 11.4791C39.8701 16.9674 41.6098 29.0723 49.3659 38.244C49.8418 38.8068 50.3288 39.3463 50.8249 39.8621Z" fill="#ABABAB"/>
<path d="M49.1063 48.0458C43.0476 35.5244 34.5686 18.0012 49.0922 10.9258C64.8835 3.23273 71.6206 20.6918 76.6192 33.6455C77.0945 34.8771 77.554 36.0681 78.0041 37.1928C78.6635 38.8402 78.0861 40.8112 76.5675 41.9366C74.5147 43.458 72.382 44.856 70.1822 46.1244C72.2204 50.1963 70.9195 55.4511 66.9036 58.4657L64.4206 60.3295C59.9637 63.6751 53.8506 62.9946 50.7666 58.8097C48.7689 56.0989 48.5322 52.5826 49.8245 49.5325C49.5902 49.0457 49.3502 48.5498 49.1063 48.0458Z" fill="#3F2121"/>
<circle cx="53.999" cy="37.0001" r="18" fill="#3F2121"/>
<path d="M64.0691 49.5883C46.7899 57.0602 54.725 73.0054 41.5 96.2813L100.237 96.2813C94.9966 75.4081 84.952 40.558 64.0691 49.5883Z" fill="#00707E"/>
<path d="M80.9028 55.96C70.6107 52.6318 63.0343 71.7939 59.3096 82.8376L62.3895 82.9929C68.684 83.3102 74.5987 86.0996 78.8476 90.7544C83.6387 80.1003 94.0075 60.1977 80.9028 55.96Z" fill="#004E68"/>
<path d="M53.9905 41.8571L62.3164 34.8043L74.7467 56.2084L62.8772 59.2438C61.8457 59.5076 60.7789 58.9639 60.3862 57.9742L53.9905 41.8571Z" fill="#F9B8A4"/>
<circle r="2.92938" transform="matrix(-0.763034 0.646359 0.646359 0.763034 48.9082 32.9535)" fill="#F49D82"/>
<path fill-rule="evenodd" clip-rule="evenodd" d="M53.8631 50.4986C61.1227 50.0384 66.5672 42.7168 66.0238 34.1455C65.4804 25.5742 59.1548 18.9989 51.8952 19.4591C44.6356 19.9194 39.191 27.2409 39.7344 35.8122C39.8103 37.0092 39.999 38.1673 40.2872 39.2727C39.3636 40.452 38.5809 42.385 38.8393 43.2726C39.2036 44.5243 41.3461 44.8887 42.5978 44.5243C42.6118 44.5203 42.6257 44.5161 42.6395 44.5118C45.2692 48.3934 49.3887 50.7823 53.8631 50.4986Z" fill="#F9B8A4"/>
<circle r="3.00801" transform="matrix(-0.498059 0.867143 0.867143 0.498059 52.2352 38.3486)" fill="#F49D82"/>
<path d="M47.2669 34.1792C48.053 33.149 46.3396 31.1594 44.4009 30.1515C43.6857 29.7796 42.8591 30.1528 42.4803 30.8645C42.3686 31.0742 42.4929 31.3356 42.7172 31.4139C44.5644 32.0585 47.0529 34.4597 47.2669 34.1792Z" fill="#522C2C"/>
<ellipse cx="43.1275" cy="35.2704" rx="1.47765" ry="1.03027" transform="rotate(-103.135 43.1275 35.2704)" fill="#522C2C"/>
<path fill-rule="evenodd" clip-rule="evenodd" d="M51.9739 27.6128C47.3374 22.6497 48.0486 14.7574 53.4977 10.7032C58.5433 6.94924 65.6768 7.99632 69.4308 13.042L84.9131 33.8512C87.0986 34.8471 88.9741 36.5309 90.1184 38.7496L93.721 45.7352C96.3001 50.7363 94.1873 56.5619 89.0018 58.747C86.6118 59.754 83.9863 59.812 81.5975 59.0922C81.1334 59.5853 80.6197 60.0447 80.0575 60.463C74.8972 64.3022 67.6016 63.2314 63.7623 58.0711L62.9633 56.9972C59.2936 52.0648 60.1099 45.1814 64.6957 41.2303L51.9739 27.6128Z" fill="#3F2121"/>
<circle cx="74.999" cy="28.0001" r="9" fill="#3F2121"/>
<circle cx="44.499" cy="21.5001" r="6.5" fill="#3F2121"/>
<circle cx="65.305" cy="42.2481" r="6.348" fill="#3F2121"/>
<path d="M57.9014 32.7406C58.4803 35.4723 58.7293 37.8998 60.575 37.5087C61.2118 37.3737 65.1641 34.0559 64.5852 31.3243C64.0064 28.5926 62.0409 26.6952 60.1952 27.0863C58.3495 27.4775 57.3226 30.009 57.9014 32.7406Z" fill="#F9B8A4"/>
<path d="M61.3972 33.5011C61.4324 33.7148 61.6342 33.8596 61.8479 33.8244C62.0616 33.7892 62.2063 33.5874 62.1711 33.3736C62.1198 33.0619 61.9779 32.6003 61.7043 32.2136C61.4255 31.8194 60.9732 31.4603 60.3247 31.5046C60.1086 31.5194 59.9454 31.7066 59.9602 31.9227C59.975 32.1388 60.1622 32.302 60.3783 32.2872C60.4516 32.2822 60.5206 32.2879 60.5858 32.3035C60.4162 32.3517 60.2569 32.423 60.1221 32.5358C59.8724 32.7449 59.7743 33.0357 59.7402 33.3548C59.7172 33.5701 59.8732 33.7634 60.0886 33.7864C60.3039 33.8094 60.4972 33.6535 60.5202 33.4381C60.5434 33.2212 60.5946 33.1632 60.6257 33.1372C60.6759 33.0952 60.7856 33.0452 61.0657 33.0061C61.1241 32.998 61.1777 32.9774 61.2241 32.9474C61.3151 33.1446 61.372 33.348 61.3972 33.5011Z" fill="#DB8C74"/>
<path d="M53.6941 15.3895C57.7383 20.1637 60.5893 27.1247 61.8224 34.83C61.9056 35.35 66.7413 34.83 66.7843 34.3051C66.8428 33.5919 66.8792 32.866 66.8923 32.129C67.106 20.1194 61.061 9.7139 53.3904 8.88772C50.987 8.62886 49.3573 8.60088 46.4443 10.5029C45.886 10.8675 45.2919 11.4792 45.2919 11.4792C45.2919 11.4792 49.6498 10.6152 53.6941 15.3895Z" fill="#DCDCDC"/>
<ellipse rx="7.82621" ry="8.55992" transform="matrix(-0.999083 -0.0428171 -0.0428171 0.999083 63.1777 31.2306)" fill="#DCDCDC"/>
<ellipse rx="7.12256" ry="7.79029" transform="matrix(-0.999083 -0.0428171 -0.0428171 0.999083 64.5455 32.1383)" fill="white"/>
<path d="M60.1741 80.3667C58.9563 81.7035 61.1993 85.8724 65.5004 89.7901C69.8015 93.7079 75.345 94.8145 76.5627 93.4776C77.7804 92.1407 79.2249 84.6942 74.9238 80.7764C70.6228 76.8586 61.3918 79.0298 60.1741 80.3667Z" fill="#004E68"/>
<path d="M55.9995 96.2885C63.4875 100.11 70.2369 94.2074 74.8772 89.9506L67.3435 80.3008C65.1957 81.8533 61.0892 81.8326 60.0226 83.0959C59.1809 84.0928 42.8425 72.6069 36.409 67.2553L32.5863 71.4724C36.4598 77.7079 48.5114 92.4669 55.9995 96.2885Z" fill="#F9B8A4"/>
<path d="M32.7232 71.7628L25.6449 63.2098C23.9097 61.1132 23.2576 58.3245 23.883 55.6758C24.5775 54.6305 26.1665 54.823 26.5912 56.0039L27.6027 58.8162L32.7836 63.1903L36.4107 67.2559L32.7232 71.7628Z" fill="#F9B8A4"/>
<path d="M22.1209 60.5992L17.577 52.0092C17.2337 51.3603 17.7261 50.5841 18.4594 50.6182C18.6396 50.6265 18.8114 50.6971 18.9454 50.8178L25.3817 56.6152L31.8198 62.0507C30.1408 62.0966 29.2395 64.0442 30.2911 65.3538L34.3886 70.4567L33.1316 72.1729L24.0567 63.2049C23.2826 62.4399 22.6298 61.5612 22.1209 60.5992Z" fill="#F9B8A4"/>
<path d="M55.9999 96.2886C63.488 100.11 73.4114 91.0334 78.0516 86.7766L75.8304 83.4588L64.1047 91.0521C60.5528 93.3522 56.8901 93.5131 53.8292 90.5914C47.7309 84.7705 37.7078 74.149 33.8904 69.9284L32.5867 71.4724C36.4603 77.708 48.5119 92.467 55.9999 96.2886Z" fill="#F9B8A4"/>
<path d="M27.3929 62.7487C27.3929 64.5589 29.0438 66.0264 31.0803 66.0264C33.1169 66.0264 34.7678 66.1978 34.7678 64.3875C35.1775 61.1098 28.61 55.3738 26.5735 55.3738C24.5369 55.3738 27.3929 60.9384 27.3929 62.7487Z" fill="#F9B8A4"/>
<path d="M22.1679 54.3648C22.0501 54.237 21.8607 54.2051 21.7076 54.2872V54.2872C21.5191 54.3882 21.4505 54.6245 21.5557 54.8107L24.5524 60.1149C24.8971 60.7248 25.7203 60.8542 26.2354 60.3793V60.3793C26.6766 59.9724 26.7045 59.2848 26.2976 58.8436L22.1679 54.3648Z" fill="#DB8C74"/>
<path d="M20.21 45.2106C19.7518 44.6404 19.1085 44.2919 18.4143 44.2377L15.9606 44.0461C15.1606 43.9836 14.6732 45.0223 15.1884 45.6917L28.7681 63.3368C29.3455 64.087 30.2286 64.4636 31.1239 64.3413L33.416 64.0283C34.1422 63.9292 34.4815 62.9695 34.0015 62.3722L20.21 45.2106Z" fill="#092D5C"/>
<path d="M20.7055 45.4619C20.3843 45.0521 19.922 44.8096 19.4271 44.7914L16.9198 44.6992C16.4473 44.6818 16.173 45.2961 16.4778 45.6893L29.2709 62.1904C29.6622 62.6951 30.2614 62.9434 30.8646 62.8508L33.2948 62.4776C33.5803 62.4338 33.7128 62.0574 33.5264 61.8195L20.7055 45.4619Z" fill="white"/>
<path d="M26.0611 53.0085C25.6211 52.4484 24.9288 52.2144 24.2695 52.4028L23.3341 52.67C22.9414 52.7822 22.7866 53.3106 23.0487 53.6442L26.2657 57.7385C26.7058 58.2986 27.398 58.5326 28.0573 58.3443L29.2788 57.9953C29.5406 57.9205 29.6438 57.5682 29.469 57.3458L26.0611 53.0085Z" fill="#F4EBEB"/>
<path d="M21.7916 47.4624C21.4572 47.049 20.978 46.8135 20.4713 46.8135L19.1217 46.8135C18.6596 46.8135 18.4 47.4121 18.6942 47.7994L21.2228 51.1288C21.6062 51.6337 22.1965 51.8888 22.7959 51.8088L24.3664 51.5991C24.658 51.5601 24.7942 51.1746 24.6009 50.9355L21.7916 47.4624Z" fill="#F4EBEB"/>
<path d="M27.7537 55.7392L31.9993 63.4754C32.3502 64.1148 32.4425 64.8644 32.2571 65.5697L31.4909 68.4856L26.984 63.9787L25.7549 60.701L26.1645 59.8815L25.9732 56.2459C25.9202 55.238 27.2682 54.8544 27.7537 55.7392Z" fill="#F9B8A4"/>
<path d="M52 39C52 41 51 43 48 44" stroke="#DB8C74" stroke-width="0.810404" stroke-linecap="round" stroke-linejoin="round"/>
</g>
<defs>
<clipPath id="clip0_137_15117">
<path d="M0 10C0 4.47715 4.47715 0 10 0H70C75.5228 0 80 4.47715 80 10V70C80 75.5228 75.5228 80 70 80H10C4.47715 80 0 75.5228 0 70V10Z" fill="white"/>
</clipPath>
</defs>
</svg>
