<svg width="24" height="24" viewBox="0 0 24 24" fill="none" xmlns="http://www.w3.org/2000/svg">
<rect width="24" height="24" rx="8" fill="#DDE6ED"/>
<path d="M10.2921 15.3943C9.93685 15.3943 9.99725 15.2601 9.87473 14.9219L8.83023 11.4844L16.8704 6.71451" fill="#656C73"/>
<path d="M10.2922 15.3943C10.5663 15.3943 10.6873 15.2689 10.8404 15.1202L12.3022 13.6987L10.4787 12.5991" fill="#4D565F"/>
<path d="M10.4785 12.5994L14.8969 15.8638C15.4012 16.142 15.765 15.9979 15.8906 15.3957L17.6892 6.92033C17.8733 6.18209 17.4078 5.84715 16.9253 6.06615L6.36437 10.1384C5.64349 10.4276 5.64779 10.8298 6.23299 11.009L8.94317 11.8549L15.2175 7.89649C15.5137 7.71686 15.7856 7.81334 15.5625 8.01143" fill="url(#paint0_linear_1449_17398)"/>
<defs>
<linearGradient id="paint0_linear_1449_17398" x1="13.6766" y1="10.37" x2="15.3877" y2="14.2685" gradientUnits="userSpaceOnUse">
<stop stop-color="#3C4852"/>
<stop offset="1" stop-color="#3C4852"/>
</linearGradient>
</defs>
</svg>
