<svg width="18" height="16" viewBox="0 0 18 16" fill="none" xmlns="http://www.w3.org/2000/svg">
<path d="M14.7488 5.50024C14.7488 4.39568 13.8533 3.50024 12.7488 3.50024H2.24878C1.14421 3.50024 0.248778 4.39567 0.248778 5.50024V13.5002C0.248778 14.6048 1.14421 15.5002 2.24878 15.5002H12.7488C13.8533 15.5002 14.7488 14.6048 14.7488 13.5002V5.50024Z" fill="#DDE6ED"/>
<path d="M17.75 2.50024C17.75 1.39568 16.8546 0.500244 15.75 0.500244H5.25C4.14543 0.500244 3.25 1.39567 3.25 2.50024V10.5002C3.25 11.6048 4.14543 12.5002 5.25 12.5002H15.75C16.8546 12.5002 17.75 11.6048 17.75 10.5002V2.50024Z" fill="#8698A6"/>
<path d="M12.519 6.96865C12.8289 6.73155 12.8289 6.26894 12.519 6.03184C11.5825 5.3153 10.5367 4.75053 9.42075 4.35865L9.21688 4.28706C8.82687 4.1501 8.41491 4.41101 8.36211 4.80908C8.21458 5.92131 8.21458 7.07918 8.36211 8.1914C8.41491 8.58948 8.82687 8.85039 9.21688 8.71343L9.42075 8.64184C10.5367 8.24996 11.5825 7.68519 12.519 6.96865Z" fill="white"/>
</svg>
